<svg width="182" height="130" viewBox="0 0 182 130" fill="none" xmlns="http://www.w3.org/2000/svg">
<path d="M175.619 71.9504C175.024 69.866 173.487 66.5463 172.207 64.5842C169.336 60.1735 165.915 56.8401 159.527 52.2217C158.11 51.1934 157.637 50.8171 157.69 50.7494C158.607 49.7085 159.326 48.9076 159.352 48.9008C159.374 48.9016 160.155 49.6173 161.086 50.5007L162.786 52.1033L162.651 52.5813C162.471 53.2586 162.489 53.294 162.782 52.841C162.928 52.6145 163.083 52.4462 163.129 52.4672C163.176 52.4882 163.852 53.1383 164.622 53.9039C167.964 57.2383 170.811 60.6978 173.545 64.7366C173.774 65.0771 173.755 64.9953 173.433 63.9831C171.983 59.5153 169.196 55.3703 165.198 51.7419C164.543 51.1466 164.255 50.8349 164.302 50.7555C164.578 50.24 164.426 50.1534 165.904 51.6476C169.358 55.1598 173.015 59.622 175.272 63.0912C175.517 63.4747 175.726 63.7604 175.74 63.73C175.777 63.6463 175.304 62.2192 174.836 61.0048C173.929 58.662 172.344 55.8505 170.736 53.7414C170.189 53.0302 169.967 52.6474 169.735 51.9862C169.304 50.7886 168.275 48.82 167.467 47.6358C167.086 47.0813 166.728 46.5739 166.667 46.5099C166.609 46.4383 166.611 46.1834 166.679 45.9309L166.801 45.4833L166.939 45.7277L167.086 45.9764L167.036 45.6617C166.984 45.3005 167.005 45.2549 167.246 45.0434L167.432 44.8801L168.745 46.291C171.293 49.0135 173.836 52.1724 175.899 55.171C176.459 55.9793 176.935 56.6493 176.963 56.6619C177.029 56.6913 176.715 55.7103 176.182 54.2656C175.689 52.9305 174.627 50.7096 173.941 49.5801L173.562 48.9445L173.914 47.9334C175.672 42.9861 175.736 37.6997 174.11 31.7189C173.853 30.7631 173.799 30.3556 173.848 29.8204C174.001 28.1995 174.063 26.0808 174.034 23.2094C174.021 21.5323 174.024 20.1455 174.047 20.1463C174.072 20.1395 175.331 19.7908 176.845 19.3739C178.986 18.7903 179.67 18.5677 179.87 18.374C180.233 18.0162 180.919 16.6617 181.036 16.0748C181.175 15.3883 181.083 14.7901 180.799 14.4708C180.628 14.2754 180.342 14.1105 179.627 13.7989C178.606 13.3411 177.804 13.1462 176.927 13.1455C176.433 13.1432 173.934 13.7757 171.369 14.5527L170.298 14.885L168.061 12.8498C162.74 8.03416 159.201 5.58898 154.5 3.48055C150.96 1.89292 147.716 0.949509 143.701 0.345375C142.065 0.104966 141.389 0.0574647 142.117 0.23821C142.312 0.279993 144.495 1.2316 146.968 2.34041C150.964 4.14145 151.669 4.47586 153.352 5.41335C155.53 6.62746 157.956 8.09003 160.078 9.47983L161.557 10.4448L159.844 9.74958C157.106 8.63121 155.336 8.03828 152.607 7.32587C151.903 7.13831 151.105 6.86234 150.414 6.57095C147.26 5.20194 144.043 4.29814 140.651 3.80914C139.623 3.66787 138.541 3.44737 137.816 3.23201C137.088 3.02425 136.676 2.93989 136.734 3.01151C136.783 3.07893 136.956 3.19334 137.106 3.26055C137.327 3.36895 137.14 3.38539 136.105 3.35976C135.406 3.33848 134.893 3.35478 134.968 3.38838C135.043 3.42198 135.732 3.63994 136.498 3.8645C139.165 4.64035 139.781 4.87113 140.662 5.43981C141.932 6.24652 141.922 6.24232 141.076 6.27368C140.378 6.29882 138.47 6.46582 138.243 6.51949C138.17 6.5323 138.758 6.65005 139.537 6.77076C140.306 6.88727 141.559 7.10234 142.308 7.23746L143.672 7.48352L144.695 8.26206C145.796 9.0936 147.823 10.7427 148.211 11.1082C148.447 11.3331 148.438 11.3289 147.815 11.1133C145.644 10.3592 142.202 9.75631 139.196 9.58638L138.065 9.52635L136.257 8.71574C132.842 7.17512 129.881 6.30368 126.027 5.68991C123.737 5.32937 123.525 5.32561 124.438 5.67139C127.32 6.74472 132.188 9.00979 135.238 10.6879C137.03 11.6834 139.404 13.0862 139.318 13.1024C139.289 13.1168 138.707 13.0109 138.04 12.8671C135.599 12.366 132.921 12.1151 130.195 12.1252C128.795 12.1367 125.397 12.339 125.429 12.4174C125.441 12.441 126.253 12.5861 127.227 12.7486C133.58 13.8077 138.837 15.1789 144.826 17.326L146.83 18.0509L148.384 19.0494C149.675 19.884 151.008 20.6736 152.707 21.6001L152.959 21.7405L151.809 22.2748C151.172 22.5648 150.6 22.8378 150.535 22.8818C150.432 22.9361 150.205 22.8159 149.156 22.1446C146.425 20.4083 145.554 19.9173 143.401 18.8973C142.02 18.241 140.96 17.7934 140.337 17.5779C139.231 17.2097 137.362 16.7368 136.543 16.6069C136.237 16.5612 135.7 16.4298 135.353 16.3014C131.243 14.8788 127.12 14.0892 122.983 13.9326C122.129 13.9058 121.382 13.8905 121.312 13.8957C121.252 13.9051 120.987 13.8686 120.733 13.8092C119.975 13.6429 117.568 13.2395 117.457 13.2626C117.406 13.2762 117.702 13.4182 118.134 13.5844C118.552 13.754 118.89 13.9052 118.879 13.928C118.866 13.9584 118.38 14.0143 117.795 14.0628C117.214 14.1037 116.75 14.1604 116.759 14.1917C116.78 14.2195 117.277 14.3146 117.885 14.4138C118.487 14.5011 119.542 14.682 120.216 14.8105C121.441 15.04 121.472 15.045 122.61 15.619C124.869 16.7511 129.588 19.3971 129.68 19.5936C129.692 19.6172 129.31 19.5919 128.814 19.5431C126.643 19.3182 123.812 19.3091 121.776 19.5102C120.667 19.6248 118.169 20.0024 118.202 20.0538C118.208 20.0656 118.722 20.1228 119.351 20.1763C123.625 20.5038 128.486 21.2775 132.571 22.2782C134.488 22.745 134.024 22.5004 137.031 24.6252C138.09 25.3741 139.487 26.3206 140.14 26.7227C140.788 27.1323 141.331 27.4764 141.347 27.4924C141.359 27.516 141.113 27.6617 140.801 27.832C140.369 28.0676 140.206 28.1042 140.067 28.0142C139.974 27.9452 139.421 27.597 138.837 27.2437C133.68 24.0449 129.111 22.6443 123.879 22.6455C123.316 22.6484 122.856 22.6705 122.868 22.6941C122.88 22.7177 123.178 22.8057 123.527 22.88C125.678 23.3514 128.908 24.3253 131.352 25.2476C132.747 25.773 139.173 28.6272 139.139 28.7033C139.125 28.7337 138.806 28.9192 138.435 29.1184C137.62 29.5565 138.012 29.6865 134.639 27.9001C131.75 26.3668 127.103 24.2372 125.33 23.6248C119.55 21.663 114.714 20.983 109.4 21.3945C108.153 21.4926 105.568 21.813 105.68 21.8634C105.708 21.876 106.682 22.0115 107.843 22.1575C110.117 22.4556 112.322 22.8054 112.355 22.8838C112.376 22.9116 112.114 22.8945 111.792 22.8597C110.581 22.7003 105.965 22.6579 105.904 22.7947C105.89 22.8251 106.173 22.8971 106.525 22.9639C108.393 23.2899 111.993 24.192 114.495 24.9581C118.164 26.0829 120.411 26.9441 126.402 29.5123C128.92 30.5957 131.385 31.6192 131.884 31.7878C132.382 31.9564 132.826 32.1192 132.866 32.1554C132.906 32.1916 132.485 32.4778 131.937 32.798C131.007 33.3402 130.924 33.3758 130.71 33.2252C130.183 32.8702 126.489 30.6473 125.302 29.9594C123.467 28.9083 119.074 26.9385 117.341 26.3894C113.736 25.2475 110.053 24.6554 106.509 24.6554C104.856 24.6539 103.641 24.7299 103.987 24.8119C104.131 24.8403 105.031 25.0426 105.987 25.2431C109.044 25.9016 112.606 26.9144 115.571 27.9521C117.829 28.7365 119.296 29.33 123.816 31.2658C126.436 32.3954 128.912 33.4232 129.309 33.565C129.707 33.7068 130.045 33.831 130.057 33.8546C130.072 33.8706 129.571 34.1848 128.954 34.5567L127.825 35.2191L125.018 33.9785C120.883 32.1609 118.721 31.3646 115.851 30.5892C110.991 29.2863 106.028 29.0151 101.126 29.7853C100.302 29.9179 99.6173 30.04 99.6105 30.0552C99.6036 30.0704 100.153 30.125 100.829 30.1725C102.061 30.2593 106.324 30.7371 106.455 30.7959C106.493 30.8127 106.04 30.8196 105.457 30.8141C104.875 30.8086 104.346 30.8089 104.291 30.8301C104.231 30.8395 104.843 31.0045 105.644 31.1994C106.449 31.3868 107.774 31.7435 108.59 31.9814C111.583 32.8579 112.502 33.2154 118.033 35.6319C120.9 36.8901 123.267 37.9333 123.282 37.9493C123.297 37.9653 122.34 38.5953 121.147 39.3482C119.638 40.3061 118.948 40.6908 118.836 40.6404C118.751 40.6026 117.546 39.8793 116.161 39.0298C112.237 36.6403 111.298 36.1275 108.478 34.8632C105.725 33.6284 104.407 33.1561 102.126 32.5988C99.6436 31.988 97.5412 31.6845 95.0741 31.5919C93.6511 31.5291 91.7631 31.55 91.3109 31.6304C91.0213 31.674 90.7701 31.607 93.3204 32.1662C97.3396 33.0371 101.401 34.2648 105.411 35.8076C106.253 36.1392 108.984 37.2727 111.474 38.3435C115.513 40.0727 116.988 40.6705 118.096 40.9847L118.422 41.0852L117.743 41.5205C117.365 41.7619 116.954 41.9519 116.84 41.9555C116.513 41.9553 113.426 40.5617 110.746 39.2136C102.802 35.2308 95.9571 33.6866 88.6246 34.2341C87.044 34.3472 84.7036 34.6494 84.8441 34.7124C84.8816 34.7292 85.3355 34.7957 85.8498 34.8529C87.9761 35.1032 90.5725 35.5095 92.9107 35.9645C94.0152 36.1858 96.8984 36.8303 97.0482 36.8975C97.0857 36.9143 96.6888 36.9464 96.1625 36.9661C93.9654 37.0493 92.4664 37.2813 89.8866 37.9418C88.4498 38.3112 87.5547 38.476 86.5771 38.549C85.8404 38.6114 84.7758 38.7276 84.2095 38.8116C83.6431 38.8955 82.72 38.9473 82.163 38.935C81.6001 38.9109 81.1249 38.917 81.1147 38.9398C81.1045 38.9626 81.2731 39.0382 81.4834 39.096L81.8819 39.2108L80.6495 39.5257L79.4264 39.8448L82.08 39.948L84.7241 40.047L85.9928 40.4789C88.1572 41.2213 90.3395 42.0994 92.5208 43.1051L94.6178 44.0729L93.3864 44.0595C91.0471 44.0333 88.6071 44.2816 86.162 44.7925C85.6646 44.8982 85.2192 44.9633 85.1758 44.9347C85.1357 44.8985 84.5151 44.5015 83.8042 44.0548C82.7894 43.4079 82.0887 43.0389 80.5477 42.3113C79.4621 41.797 78.3255 41.2964 78.0121 41.1925L77.4323 41.0055L78.6982 41.9202C79.9888 42.8552 82.2047 44.5613 82.2558 44.6481C82.2643 44.6793 82.1816 44.688 82.0778 44.6688C81.296 44.5557 79.6483 44.3921 78.8137 44.3466L77.8276 44.288L77.4863 43.9705C75.2279 41.9074 72.2568 39.8535 69.3408 38.354C67.8764 37.606 65.2276 36.4638 64.9236 36.4644C64.835 36.4612 64.9857 36.6019 65.2802 36.7979C67.4988 38.3225 70.9303 41.0304 73.3538 43.1767C74.6443 44.3125 74.6656 44.3403 74.399 44.3578C74.2466 44.3716 73.5636 44.4398 72.8806 44.5079L71.6448 44.6296L70.0127 43.8794C68.5244 43.1846 68.3192 43.0651 67.5837 42.4978C64.7787 40.2992 61.77 38.5298 58.6878 37.2755C57.8346 36.9203 57.0837 36.6383 57.0266 36.6401C56.9695 36.6419 57.5782 37.1158 58.3802 37.6855C61.9982 40.3035 65.634 43.3587 68.6328 46.3292C70.3429 48.0094 74.8116 52.7442 74.952 53.0081C74.9758 53.0553 74.6939 53.1572 74.3242 53.2289L73.6488 53.3552L72.7238 52.0819C68.877 46.8132 65.4542 43.5339 60.9922 40.8661C59.8489 40.1799 57.092 38.8522 56.0617 38.4906L55.2852 38.2155L56.3902 39.0124C61.241 42.4938 64.6264 45.5554 69.8185 51.1352L72.2308 53.733L70.8433 54.1429C70.0759 54.3741 69.4252 54.5207 69.3946 54.4887C69.358 54.4448 68.8006 53.656 68.1461 52.7324C63.1114 45.5975 58.9915 41.5398 53.5394 38.3458C52.2121 37.5679 49.3394 36.1975 48.1184 35.7595C47.1231 35.3954 47.1222 35.4224 48.0859 36.0829C49.8984 37.3341 52.2837 39.1892 54.3429 40.9438C55.9858 42.3472 56.5766 42.8862 56.2199 42.6531C54.9318 41.838 53.4887 41.0173 53.0043 40.8183L52.4321 40.5891L53.3966 41.4235C55.2114 42.9954 56.8696 44.6158 58.4817 46.3891C59.8521 47.8986 60.6172 48.8263 63.0326 51.9187C64.1884 53.4051 65.4523 54.9766 65.8404 55.4155L66.5307 56.2091L66.2505 56.2569C66.0947 56.2784 65.8213 56.311 65.6526 56.3359L65.3444 56.3712L63.7204 54.4739C60.0852 50.2134 58.2534 48.3781 55.6595 46.4112C53.0749 44.4484 49.964 42.8067 47.0017 41.8618C46.3529 41.6531 45.991 41.4817 45.1082 40.967C44.0014 40.3245 40.5906 38.7493 40.0746 38.6457C39.8668 38.6074 39.9034 38.6512 40.3342 38.9448C41.4375 39.6953 43.3725 41.175 45.0172 42.5245C47.989 44.9531 50.4933 47.3457 53.6154 50.7185C56.3306 53.644 58.6756 56.0656 59.5192 56.8184C59.9533 57.2049 60.2913 57.5299 60.2691 57.5291C60.2436 57.5359 59.7139 57.5632 59.0956 57.5874L57.9732 57.632L57.5315 57.0868C57.2846 56.7844 56.5178 55.8103 55.8335 54.928C52.6462 50.8227 50.6399 48.7997 48.0042 47.0514C46.299 45.9122 43.869 44.859 41.8892 44.3822C41.1663 44.2132 41.0914 44.1796 40.4376 43.7312C39.1171 42.8376 37.6792 42.0558 35.8716 41.2452C34.9069 40.8126 34.0257 40.4448 33.9312 40.4298C33.8332 40.4224 34.3891 40.8635 35.1877 41.4408C38.4712 43.8266 41.9366 46.8602 44.8511 49.8933C45.3873 50.4535 45.8155 50.9286 45.8086 50.9438C45.8018 50.959 45.6188 50.8404 45.4119 50.6746C44.587 50.0306 43.0903 49.2042 41.768 48.666C40.4117 48.1034 39.6147 47.8738 38.1943 47.6296C37.3249 47.4863 37.3156 47.4821 35.9985 46.7818C35.2731 46.3926 34.3059 45.9406 33.8555 45.766C32.391 45.2188 31.2219 44.8407 31.2474 44.9343C31.2584 44.9849 31.3759 45.0741 31.5164 45.1371C31.9379 45.3261 34.7217 47.1956 36.0302 48.166C38.3934 49.9199 40.1223 51.4076 43.694 54.7811C44.9113 55.9298 46.2929 57.1887 46.7679 57.5844C47.2395 57.9876 47.6898 58.3631 47.7698 58.4355C47.8898 58.5441 47.6692 58.6096 46.5672 58.8095L45.2105 59.0504L43.1192 56.6148C40.5982 53.6576 39.7717 52.7664 38.368 51.4063C35.1206 48.2878 31.5935 45.9937 27.9204 44.6022C27.0629 44.2816 25.9569 43.9134 25.4545 43.7795C24.4216 43.4989 24.3076 43.4021 26.6684 44.8353C31.098 47.525 33.972 49.7454 39.8234 55.0089C41.8213 56.7999 43.0948 57.8733 44.273 58.7579L44.777 59.1391L44.3469 59.2203C44.1109 59.2697 43.3649 59.4283 42.7048 59.5707C42.0413 59.7207 41.4741 59.8316 41.4554 59.8232C41.4273 59.8106 40.6076 59.0046 39.6253 58.0344C35.9668 54.4028 33.8752 52.6702 31.2675 51.1354C30.2016 50.5022 27.6073 49.3388 26.4442 48.9724C25.482 48.6597 23.194 48.1176 22.8866 48.1259C22.7853 48.1261 22.9777 48.2489 23.4272 48.4505C25.7559 49.504 29.3844 51.597 31.9307 53.3691C33.2443 54.2778 33.5814 54.5294 36.509 56.7556C37.7119 57.6604 39.1787 58.7292 39.7772 59.1254C40.3757 59.5217 40.8967 59.8649 40.9308 59.8893C40.9648 59.9137 40.1532 60.1434 39.1192 60.3921L37.2267 60.8494L35.3975 59.0336C34.3939 58.0355 33.0635 56.763 32.448 56.2039C29.0652 53.1617 25.6308 51.1375 22.0205 50.0572C21.0353 49.7707 19.1526 49.3283 18.8835 49.3263C18.795 49.3231 19.408 49.662 20.2466 50.0746C24.2065 52.0057 27.0798 53.8513 32.1842 57.7204C34.3856 59.3835 36.1504 60.6407 36.5344 60.8129C36.6374 60.8591 36.7208 60.9239 36.7038 60.9619C36.6697 61.038 33.6964 61.8234 33.6027 61.7814C33.5653 61.7646 32.8052 60.8758 31.9056 59.7965C28.6824 55.9217 26.5424 53.9208 23.807 52.2192C22.0898 51.1569 19.1472 49.9925 17.3122 49.6445C16.906 49.572 16.9307 49.5922 18.1465 50.2926C21.9087 52.4639 24.2957 54.265 28.7503 58.2536C30.1999 59.5613 31.762 60.9194 32.2004 61.2713C32.6482 61.6273 33.0023 61.9414 32.9921 61.9642C32.9818 61.987 32.4384 62.1452 31.7741 62.3222L30.586 62.6387L29.4974 61.3286C26.4691 57.6964 24.8161 56.0144 22.5882 54.2847C20.7154 52.842 18.2924 51.4723 16.2898 50.7203C15.1786 50.3134 15.0696 50.2554 14.352 49.7235C13.5662 49.1428 11.6643 47.9154 11.311 47.7752C11.1799 47.7164 11.2828 47.8631 11.5748 48.1401C12.724 49.24 15.1302 51.826 16.2069 53.1125C17.5244 54.6898 17.5849 54.7808 17.2758 54.6422C16.8262 54.4406 14.9657 53.9989 13.7591 53.8049C12.5303 53.61 10.3026 53.4603 9.82823 53.5398L9.58635 53.5775L9.79072 53.6235C10.2625 53.7254 12.4669 54.4035 13.6982 54.8187C14.4219 55.0611 15.9732 55.6654 17.1448 56.1634L19.2691 57.0704L21.1116 59.7598C22.1217 61.2448 23.2519 62.8385 23.623 63.3154C23.9941 63.7924 24.3498 64.2533 24.4196 64.3485C24.5285 64.507 24.4544 64.5468 23.5814 64.8129L22.6283 65.1069L20.9949 63.5068C18.0965 60.6635 16.2654 59.1026 14.206 57.7498C11.7006 56.0874 8.90192 54.878 6.13195 54.2568C3.97849 53.766 3.97935 53.739 6.21683 54.8702C10.5487 57.0504 12.6933 58.4139 18.0931 62.452C19.2066 63.2802 20.5594 64.2522 21.0897 64.5996C21.6295 64.9512 22.0534 65.2601 22.0211 65.2821C22.0015 65.3007 21.332 65.5393 20.5254 65.8078L19.0724 66.2887L18.4254 65.7245C14.8144 62.5891 13.4957 61.5411 11.7122 60.3759C8.56394 58.3156 5.1292 56.9945 1.63958 56.4981C0.517244 56.3419 -0.150405 56.3256 0.522289 56.4811C0.695144 56.5221 1.99188 57.0671 3.40609 57.7013C7.20853 59.4065 9.03133 60.434 13.7367 63.5123C15.2938 64.5302 16.9539 65.5943 17.4324 65.882C17.9108 66.1696 18.311 66.4312 18.3288 66.4667C18.3501 66.4945 17.6321 66.7661 16.7454 67.0626C14.783 67.726 14.553 67.8877 14.8875 68.3208C15.0245 68.4919 15.1148 68.5415 15.32 68.5605C15.475 68.566 16.5328 68.2641 17.6852 67.8768C19.657 67.2175 19.7941 67.1877 20.1125 67.3305C20.4437 67.4699 20.4437 67.4699 20.2727 67.2744C20.1016 67.079 20.105 67.0714 21.4388 66.6558C22.1806 66.4314 22.7879 66.2562 22.7998 66.2798C22.8151 66.2958 22.7027 66.4463 22.574 66.6078C22.0372 67.2529 21.2888 68.7713 20.2699 71.3191C19.0754 74.3088 18.1268 76.1483 16.909 77.8854C16.1293 78.997 14.8997 80.5097 14.3604 81.035C14.1841 81.2025 14.0588 81.3564 14.0707 81.38C14.1243 81.4862 15.9898 80.4871 16.8962 79.8706C17.9193 79.1696 18.709 78.4369 19.5688 77.3977C20.0698 76.7822 20.2309 76.4983 20.9572 74.8787C21.8847 72.8104 22.0118 72.3012 22.4885 69.081C22.8704 66.4484 22.9173 66.2686 23.2104 66.1168C23.3424 66.0482 23.511 66.0234 23.5766 66.0528C23.6515 66.0864 23.712 66.0769 23.7103 66.0305C23.7146 65.9959 24.1856 65.8236 24.7452 65.6544C25.8737 65.3202 28.7175 64.5224 28.7456 64.535C28.755 64.5392 28.5633 64.7912 28.3128 65.0989C27.6439 65.9132 26.5974 67.5444 25.4349 69.5347C22.9743 73.7923 21.5026 75.9452 19.4773 78.2791C18.4812 79.4216 16.8598 81.1056 16.0581 81.8146C15.7975 82.0447 15.5913 82.2536 15.6066 82.2697C15.6364 82.3287 17.5972 81.4179 18.3808 80.9748C20.0581 80.0191 21.7193 78.6727 22.9983 77.2005C25.1412 74.7549 26.4265 72.29 28.2087 67.2624C28.537 66.3046 28.9284 65.2563 29.0563 64.9209L29.3001 64.327L30.3128 64.0505C31.2454 63.8021 31.363 63.7908 31.5954 63.9499C31.8465 64.1173 31.8499 64.1097 31.7197 63.9234C31.587 63.7178 31.587 63.7178 31.954 63.6267L32.3118 63.5314L32.1123 63.8255C31.388 64.8889 30.8697 65.9442 28.9277 70.3248C27.4879 73.5606 26.5834 75.5021 26.1309 76.2855C24.8558 78.5267 23.2214 80.9171 21.7191 82.7368C21.0145 83.5806 21.1192 83.5728 22.5197 82.6574C24.5735 81.3135 26.2391 79.7315 27.5165 77.9115C28.0236 77.2074 28.372 76.8065 28.827 76.4443C30.8026 74.8735 32.2077 73.1199 33.4189 70.6949C34.2031 69.1469 34.8554 67.2659 36.1289 62.896C36.2108 62.6131 36.2781 62.5885 37.3955 62.3042C38.0437 62.1382 38.5862 62.007 38.6143 62.0196C38.6424 62.0322 38.5427 62.1793 38.4038 62.3636C38.2521 62.5513 37.0971 65.0015 35.5225 68.4874C33.8491 72.1939 32.6668 74.7049 32.2543 75.4241C30.8983 77.8207 28.9323 80.6744 27.471 82.4028C27.1549 82.7816 26.9035 83.1164 26.9154 83.14C26.9869 83.2816 29.5629 81.5509 30.5622 80.7021C31.3307 80.0421 32.4204 78.9417 32.82 78.4268C33.0084 78.1825 33.3662 77.8863 33.666 77.7194C36.4063 76.1993 38.7101 73.9719 40.2604 71.3428C40.6925 70.605 40.9268 70.3082 41.5564 69.7321C43.5397 67.9182 44.8359 66.0062 46.7095 62.1795L47.6412 60.2775L49.0124 60.0796C49.7567 59.975 50.392 59.9129 50.4005 59.9441C50.4218 59.9719 50.0741 60.4461 49.6353 60.9983C49.1999 61.5428 48.3222 62.7474 47.6941 63.6713C44.7311 67.9958 43.9497 69.061 42.4372 70.9034C40.4119 73.3378 37.7928 75.9169 35.284 77.9244C34.2991 78.7157 34.2991 78.7157 34.7727 78.5627C39.188 77.1454 42.8281 74.6223 45.6963 70.9859C47.2676 68.9872 47.9656 67.7567 49.9339 63.5432L51.7087 59.7362L52.9444 59.6145C54.5327 59.4591 54.6468 59.4555 54.4807 59.6002C54.0215 59.9971 52.8038 61.6337 50.5847 64.8763C47.4164 69.4831 45.874 71.4674 43.3018 74.168C42.1746 75.3521 40.0438 77.3191 38.6228 78.481C37.9336 79.0396 37.3253 79.5431 37.27 79.5913C37.149 79.7106 37.7281 79.5228 39.1003 78.9965C41.9213 77.9236 44.6745 76.1992 46.8845 74.1307C47.6743 73.3981 49.1466 71.7203 49.6545 70.9892L50.0525 70.4279L50.83 70.2743C51.2635 70.1855 51.594 70.1511 51.5735 70.1967C51.5224 70.3107 49.6183 72.0232 48.7595 72.734L48.0439 73.3264L48.572 73.1522C50.4185 72.5465 52.7133 71.2923 54.0738 70.1398C54.2885 69.9621 54.5577 69.7632 54.677 69.6979C54.8797 69.5971 58.3212 69.122 58.4524 69.1809C58.5648 69.2313 57.9844 70.1491 57.6061 70.4909C57.3906 70.6957 56.7738 71.168 56.2422 71.5506C55.7106 71.9333 55.3111 72.2473 55.3554 72.2489C55.409 72.2547 55.7795 72.156 56.1858 72.0276C57.0367 71.7608 57.0307 71.749 56.4077 72.7117C55.8589 73.5341 55.8555 73.5417 55.0651 73.7992C54.6554 73.9351 53.9408 74.1991 53.4723 74.3909C52.4903 74.7998 50.1095 75.9697 50.1359 76.0364C50.1571 76.0642 50.571 75.9941 51.065 75.8959C52.4422 75.6094 54.5083 75.2665 54.5322 75.3137C54.5619 75.3727 52.7291 77.6285 51.8915 78.5681C51.5175 78.9757 51.2244 79.3283 51.2303 79.3401C51.2329 79.3595 51.7193 79.1027 52.3062 78.7723C54.0635 77.7886 55.4478 76.7837 56.7837 75.5106L57.4431 74.893L59.1166 74.7484C62.8638 74.4196 64.9706 74.3872 72.1878 74.5734C74.1559 74.6249 76.4066 74.6479 77.1961 74.6184C77.9727 74.5922 78.6319 74.5773 78.6506 74.5857C78.6787 74.5983 78.3694 74.9619 77.9783 75.4076C77.5813 75.8414 77.1936 76.2794 77.1178 76.3733C76.9405 76.5678 77.0921 76.581 73.7388 76.0818C70.5838 75.6167 69.4572 75.4951 67.5658 75.4232C62.4231 75.2266 58.5155 76.2141 55.039 78.5731C54.5986 78.8779 54.1838 79.1759 54.1054 79.2504C54.0398 79.3214 54.7279 79.1916 55.6444 78.9542C60.5484 77.7012 63.5283 77.4027 71.9413 77.3306C73.1829 77.3212 74.692 77.2673 75.2984 77.2196C75.9047 77.1718 76.3995 77.1471 76.4055 77.1589C76.4174 77.1826 75.7724 77.9436 74.9765 78.8653L73.5357 80.5481L71.778 80.4539C68.6417 80.2986 65.6237 80.2055 64.0584 80.2342C56.3122 80.3496 50.3613 82.0556 45.3361 85.6105C43.732 86.7543 43.6732 86.8101 44.3682 86.5647C46.0751 85.9694 48.649 85.1966 50.6573 84.6816C55.2871 83.4883 58.7117 82.9509 65.7819 82.2857C68.4339 82.0412 70.0487 81.852 72.4495 81.5405L72.7518 81.4934L72.6104 81.6583C72.5379 81.7445 72.0207 82.3711 71.4575 83.0501C70.8943 83.729 70.3967 84.337 70.331 84.408C70.2595 84.4672 69.8848 84.5001 69.4045 84.4674C67.6698 84.3471 62.5952 84.1993 61.1475 84.2168C54.0093 84.3309 48.3745 85.658 43.4672 88.3982C42.181 89.1092 39.2505 91.1285 39.4651 91.1517C39.5094 91.1533 40.0852 90.9731 40.7512 90.7421C44.469 89.4503 48.9481 88.3172 53.1034 87.6052C55.2811 87.2392 59.0769 86.777 63.2125 86.3849C65.1849 86.2009 67.3233 85.9726 67.9689 85.8876C68.611 85.8103 69.151 85.7602 69.1629 85.7838C69.1782 85.7998 68.828 86.2546 68.3994 86.7839L67.6086 87.7445L64.4084 87.6062C59.8073 87.4059 57.232 87.4292 54.626 87.7218C49.3407 88.3198 45.0999 89.8245 41.2878 92.4805C40.7179 92.8734 40.1633 93.2822 40.0491 93.3863C39.8012 93.613 39.6956 93.6479 41.652 92.9726C43.6723 92.2804 47.7281 91.2132 50.0064 90.7736C53.2913 90.1462 55.2722 89.8929 62.1782 89.218C63.5791 89.0791 65.1998 88.9018 65.7729 88.8026C66.3521 88.7153 66.8324 88.6476 66.8511 88.656C66.8792 88.6686 66.3995 89.3119 66.0442 89.728C65.9522 89.8328 65.6754 89.8731 65.1125 89.849C62.5722 89.7692 59.6324 89.903 57.7545 90.2024C56.5579 90.3873 54.2558 90.9806 53.4474 91.303C53.0948 91.4372 52.215 91.618 51.2518 91.734C49.2615 91.9831 46.726 92.6452 45.111 93.3366C43.9262 93.8464 42.0838 94.8193 42.1314 94.9137C42.1433 94.9374 42.6245 94.8426 43.1926 94.7047C44.6064 94.3615 48.6697 93.6539 48.8196 93.7211C48.8477 93.7337 48.6909 93.8826 48.4703 94.0485C48.0741 94.3549 47.7248 94.6823 47.8304 94.6474C47.8688 94.6372 48.3687 94.4504 48.9488 94.2357C49.5288 94.0209 50.2749 93.7618 50.5977 93.6691C51.6207 93.3698 53.8792 93.2502 58.9555 93.2435C60.4407 93.2428 61.92 93.2303 62.2342 93.2069C62.5578 93.1876 62.941 93.1859 63.0867 93.1873C63.349 93.2045 63.349 93.2045 63.1199 93.2387C62.9861 93.261 62.0085 93.334 60.9422 93.4038C58.0927 93.5872 55.9201 93.8915 53.8198 94.4109C53.2611 94.553 52.3618 94.652 51.3884 94.6904C44.8702 94.9273 39.5197 96.4733 34.9827 99.4161C34.1257 99.9724 32.8445 100.923 32.7933 101.037C32.7797 101.068 32.9713 101.016 33.2056 100.921C36.0581 99.8527 41.3752 98.4561 45.034 97.8228C45.6677 97.7143 46.2885 97.6091 46.4129 97.5827C46.5943 97.5544 46.5644 97.5959 46.2305 97.8388C45.9323 98.0522 45.2757 98.2874 43.8473 98.688C40.7897 99.5361 38.6006 100.554 36.2264 102.211C35.562 102.69 35.0236 103.088 35.0355 103.111C35.0474 103.135 35.4281 103.013 35.8957 102.849C37.5771 102.26 40.6228 101.388 42.4471 100.983C45.968 100.205 48.6754 99.812 53.8687 99.3189C55.4186 99.1737 57.2105 98.9909 57.856 98.906C58.4888 98.8245 58.9998 98.7887 58.9827 98.8268C58.9589 98.88 58.3377 99.6882 58.0173 100.102C57.9415 100.196 57.1792 100.365 56.0431 100.541C55.0339 100.709 53.3509 101.05 52.3102 101.314C49.491 102.032 47.7066 102.775 45.7601 104.03L44.8452 104.615L43.4979 104.76C40.2634 105.099 37.2637 105.919 34.7764 107.15C33.6759 107.698 32.1997 108.607 31.4423 109.217L30.8153 109.712L31.225 109.576C31.4583 109.507 32.2522 109.242 33.0136 108.999C35.4138 108.213 39.214 107.314 41.7213 106.941C42.3703 106.848 42.4461 106.855 42.331 106.986C41.3494 108.171 41.2932 108.246 41.6621 108.001C41.8009 107.917 42.3631 107.566 42.9151 107.238L43.9101 106.625L46.4675 106.366C50.8484 105.928 52.0654 105.798 53.0294 105.655C53.5387 105.573 53.945 105.545 53.9313 105.576C53.9177 105.606 53.5794 106.085 53.1755 106.634C52.642 107.372 52.3958 107.645 52.2433 107.659C52.1224 107.678 50.8407 107.751 49.3785 107.826C42.9905 108.149 39.806 108.803 35.7158 110.65C35.5361 110.724 34.8701 110.855 34.2339 110.944C32.1005 111.211 29.8086 111.882 27.8026 112.818C27.4329 112.99 27.1527 113.139 27.1808 113.151C27.1995 113.16 27.8195 113.081 28.5451 112.968C29.9393 112.744 32.6211 112.458 32.5904 112.527C32.5802 112.55 32.2905 112.794 31.9395 113.075C31.218 113.656 29.9784 114.789 30.0175 114.853C30.0201 114.872 30.2833 114.762 30.5856 114.614C31.4034 114.195 33.7824 113.18 34.9876 112.725L36.0455 112.323L38.5891 112.395C39.9875 112.437 41.1609 112.48 41.189 112.492C41.2265 112.509 40.8475 112.677 40.3441 112.871C38.4046 113.609 36.39 114.815 34.9852 116.067C34.3692 116.612 32.8211 118.283 32.7256 118.496C32.7051 118.542 33.2111 118.267 33.8568 117.88C36.966 116.014 40.2862 114.581 44.5559 113.262C45.9536 112.83 46.1733 112.791 47.3485 112.779C48.0485 112.774 48.6566 112.772 48.6915 112.77C48.723 112.775 48.74 112.938 48.7271 113.142C48.7142 113.346 48.7796 113.677 48.8749 113.866C49.0417 114.196 49.0945 114.229 49.5892 114.405C50.0149 114.56 50.1051 114.609 50.0642 114.7C50.0335 114.769 49.8704 115.81 49.6893 117.017C48.9981 121.794 48.5221 123.608 47.1316 126.984L46.233 129.139L46.6777 128.699C48.0545 127.334 49.1325 125.808 49.8759 124.151C50.9807 121.687 51.3915 119.141 51.2885 115.432L51.2399 113.785L52.2275 112.41C52.7805 111.654 53.2526 111.052 53.2807 111.065C53.3088 111.078 53.3189 111.356 53.2923 111.691C53.2692 112.019 53.2134 112.971 53.1585 113.796C52.9104 117.986 52.3044 121.094 51.0219 124.756C50.6978 125.679 50.662 125.709 51.7612 124.311C53.5097 122.118 54.5909 119.206 54.8002 116.13C54.8979 114.758 54.8483 113.339 54.6261 111.276L54.4286 109.434L55.6233 107.823C56.7216 106.352 57.1792 105.808 57.0692 106.079C57.024 106.205 57.0646 106.816 57.2789 109.324C57.3551 110.308 57.3895 111.41 57.3493 111.775C57.1587 113.379 56.239 116.986 55.7172 118.149C55.6183 118.369 55.5637 118.592 55.6097 118.64C55.6557 118.688 55.6113 118.887 55.526 119.077C55.4374 119.275 55.4075 119.416 55.4586 119.403C55.5991 119.365 56.3106 118.506 56.7597 117.831C56.9762 117.499 57.2182 117.16 57.294 117.066L57.4261 116.897L57.4286 117.117C57.4378 117.523 57.1045 120.022 56.9116 121.004C56.6247 122.447 56.6179 122.462 56.9034 122.051C57.0329 121.862 57.4054 121.207 57.7259 120.593C58.9268 118.291 59.4365 115.725 59.2956 112.803C59.2567 112.138 59.2938 111.177 59.3604 110.677C59.6091 108.944 59.554 106.508 59.2239 104.058L59.1169 103.243L59.8668 102.274C60.286 101.74 60.6345 101.339 60.6583 101.387C60.6728 101.43 60.7016 101.817 60.7099 102.25C60.7182 102.683 60.7959 104.015 60.8814 105.204C61.2435 110.417 61.1987 113.2 60.7151 116.637C60.5177 118.055 60.1123 120.138 59.9861 120.419C59.8258 120.777 60.0387 120.754 60.2723 120.383C61.3154 118.76 61.9257 117.499 62.3666 116.089C63.6468 112.006 63.5029 108.288 61.8002 101.625C61.4993 100.439 61.4646 99.9398 61.6894 100.041C61.7269 100.057 61.8749 100.379 62.0118 100.751C62.1454 101.131 62.6421 102.431 63.1193 103.65C63.5964 104.869 64.1051 106.193 64.2505 106.596L64.5184 107.328L64.162 108.273C63.7817 109.272 63.8328 109.358 64.3679 108.667C64.5528 108.43 64.7326 108.255 64.7701 108.272C65.1822 108.457 65.4005 114.993 65.0747 117.852C65.0157 118.41 65.0318 118.6 65.1264 118.514C65.3053 118.366 65.752 117.37 66.0777 116.393C66.2185 115.954 66.3566 115.596 66.3728 115.585C66.3983 115.578 66.4468 115.846 66.4866 116.184C66.5502 116.769 66.5562 116.781 66.6423 116.463C66.8898 115.46 67.0803 114.057 67.0978 113.015C67.1673 110.251 67.0057 107.978 66.6454 106.272L66.4797 105.513L66.8838 104.461C67.9624 101.63 68.1586 99.0602 67.6634 94.5457C67.5667 93.7077 67.5576 93.1009 67.6164 93.0451C67.6914 92.9782 67.6829 92.947 67.6002 92.9556C67.4069 92.9603 67.551 92.7143 68.1432 92.0209L68.6561 91.429L68.8446 92.5638C68.9389 93.1815 69.2294 94.7913 69.4902 96.1412C70.8495 103.144 71.1356 106.871 70.7422 112.238L70.6599 113.425L71.4238 111.621C72.1876 109.817 72.4785 108.843 72.704 107.236C72.8407 106.329 72.9249 104.687 72.893 103.805C72.8618 103.096 72.8926 102.928 73.1722 102.304C74.0451 100.358 74.5735 97.6993 74.578 95.2811C74.5748 93.0056 74.293 91.0252 73.4872 87.7048C73.132 86.2395 73.1328 86.2125 73.3569 85.9385C73.4856 85.777 73.6159 85.6619 73.644 85.6745C73.6721 85.6871 73.7359 85.871 73.7767 86.0811C73.8115 86.2794 74.2715 87.8373 74.797 89.5251C76.5095 95.0879 77.0099 97.6595 77.2327 102.079L77.274 102.965L77.4906 102.332C77.7626 101.55 78.0391 100.331 78.1392 99.481C78.1759 99.1231 78.2391 98.8317 78.2646 98.8249C78.2902 98.8181 78.3392 99.7625 78.3812 100.923C78.4568 103.213 78.3951 105.834 78.2162 107.763L78.1075 108.983L78.4347 108.454C79.0927 107.389 80.2133 103.936 80.4414 102.249C80.4901 101.914 80.7187 101.204 81.0171 100.489C82.4042 97.1195 82.8357 94.0252 82.4243 90.4524C82.1148 87.7563 81.4253 85.2552 79.8254 81.0215L79.2096 79.3846L79.967 78.5735C80.3743 78.1168 80.7441 77.7438 80.7696 77.737C80.8369 77.7124 80.8403 77.7048 81.0017 78.6996C81.0747 79.189 81.3932 80.9118 81.7025 82.53C82.7627 88.0925 83.0962 90.6349 83.2359 94.0859C83.3091 95.9545 83.2412 99.1662 83.0821 100.775C83.0265 101.326 82.9896 101.885 82.9887 102.012C82.986 102.394 84.5828 98.5075 84.843 97.5008C85.296 95.713 85.5593 93.7213 85.5702 92.0915C85.5713 91.6627 85.6396 91.3097 85.7964 90.96C86.4477 89.5076 86.9436 87.2732 86.9989 85.5445C87.0785 82.8586 86.6308 80.5207 85.185 76.2192C84.7921 75.0384 84.4639 74.0144 84.469 73.9528C84.4631 73.8406 86.617 71.546 86.6528 71.6168C86.6647 71.6405 86.7742 72.3745 86.9041 73.2639C87.0246 74.149 87.3788 76.1436 87.671 77.6994C88.5953 82.4612 88.5648 82.2283 88.2603 83.3338C88.1135 83.8616 87.937 84.4309 87.8654 84.5906C87.6608 85.0468 87.8959 84.9239 88.31 84.3516C88.5154 84.0692 88.7156 83.8485 88.7437 83.8611C88.7684 83.8813 88.8228 84.1614 88.8567 84.4872C88.8906 84.8129 88.9779 85.7471 89.0627 86.5614C89.2517 88.3723 89.3378 90.137 89.3258 92.0952C89.3294 93.5672 89.1739 96.4474 89.0449 97.312C88.9219 98.1884 89.1511 97.8528 89.8758 96.0864C90.8545 93.7032 91.334 91.8816 91.518 89.8909C91.5847 89.1902 91.5847 89.1902 91.975 88.7716C92.5841 88.1406 93.7737 86.6922 94.0438 86.2654C94.3267 85.8351 94.4775 85.7749 94.4254 86.1168C94.4023 86.2435 94.363 86.6825 94.3245 87.0945L94.2688 87.8458L94.8655 86.5151C95.1928 85.7852 95.5407 84.9091 95.6337 84.5764C95.7267 84.2436 96.1641 83.0425 96.6151 81.9113C98.3698 77.4468 98.9437 73.9596 98.7878 68.6383C98.7425 66.9832 98.6952 66.2861 98.4887 63.4354C98.2619 60.4294 98.2662 60.3948 98.811 60.6848L99.1286 60.8546L98.9524 60.6203C98.8554 60.4855 98.7703 60.3743 98.7643 60.3625C98.7184 60.3145 99.3599 59.7619 99.4255 59.7913C99.4629 59.8081 99.5182 60.0612 99.5529 60.3599C99.5877 60.6586 99.8086 61.8719 100.04 63.0624C100.709 66.5865 100.831 67.3172 101.069 69.2959C101.424 72.3413 101.483 75.0708 101.251 77.9445C101.192 78.7034 101.148 79.3779 101.15 79.4243C101.175 79.6454 102.532 76.2173 102.715 75.459C103.779 71.1048 103.318 66.9894 101.092 60.9407C100.746 59.9818 100.434 59.1477 100.411 59.0734C100.37 58.9638 101.501 57.973 102.5 57.2247C102.701 57.0774 102.724 57.1516 102.963 59.0764C103.108 60.1826 103.483 62.4329 103.81 64.0865C104.628 68.3075 104.948 70.1772 105.215 72.3425L105.458 74.2326L104.968 75.7023C104.695 76.5115 104.397 77.4009 104.312 77.6914L104.147 78.2109L104.554 77.7542C104.768 77.5031 105.107 77.098 105.301 76.8655L105.641 76.4335L105.703 78.2784C105.762 80.3783 105.682 83.4659 105.503 85.395C105.436 86.1227 105.392 86.7972 105.401 86.9018C105.426 87.2233 107.114 83.1582 107.419 82.0256C108.237 78.949 108.482 76.018 108.203 72.6779C108.154 72.1352 108.189 71.9318 108.521 71.0397C109.3 68.9777 109.746 66.6025 109.835 64.1217C109.852 63.6084 109.877 63.1999 109.896 63.2083C109.943 63.2293 110.732 65.3824 111.206 66.8095C111.994 69.1905 112.173 69.9194 112.129 70.6209C112.011 72.5135 111.38 76.6051 110.859 78.8463C110.565 80.1029 110.563 80.1569 110.838 79.7959C111.323 79.1644 112.319 77.4463 112.814 76.4172C113.102 75.8249 113.349 75.3508 113.377 75.3634C113.405 75.376 113.436 75.4815 113.448 75.6055C113.768 78.0779 114.043 79.8726 114.1 79.7703C114.233 79.4738 114.545 77.9513 114.693 76.7938C114.888 75.329 114.929 73.5572 114.807 72.1235C114.757 71.5074 114.78 70.8051 114.856 70.4099C114.931 70.0418 115.056 69.2118 115.13 68.5693C115.66 64.2771 115.176 60.1144 113.277 52.5593C112.937 51.2104 112.678 50.0808 112.699 50.0351C112.74 49.9439 113.391 49.496 114.525 48.7719L115.323 48.2713L115.529 49.6695C115.647 50.4348 116.055 52.7094 116.438 54.7166C117.481 60.1162 117.853 62.6484 118.071 65.8241C118.299 69.004 118.269 72.6072 117.995 75.6261C117.923 76.3885 117.906 77.0291 117.952 77.0501C118.084 77.1089 119.545 73.4992 119.889 72.256C120.324 70.7341 120.702 68.5109 120.789 67.0885C120.826 66.4292 120.874 65.7936 120.903 65.6787C120.932 65.5639 121.245 65.0922 121.612 64.6264C122.962 62.894 123.421 62.1224 124.539 59.6284L125.583 57.3016L125.774 58.8576C126.281 63.0945 126.366 67.6716 126.008 71.5296C125.821 73.5009 125.796 73.5077 126.805 71.1565C127.768 68.8848 128.04 68.0022 128.435 65.8415L128.68 64.5175L129.693 63.9396C130.615 63.4127 133.979 61.7064 134.499 61.501L134.717 61.4161L134.789 61.6312C134.826 61.7484 134.839 62.0464 134.822 62.2853C134.786 62.7166 134.37 64.8226 134.059 66.1442C133.922 66.7496 133.927 66.7885 134.093 66.5703C134.195 66.4427 134.494 66.0014 134.757 65.5898L135.228 64.8418L135.282 65.3228C135.334 65.8848 135.374 65.8206 135.596 64.8242C135.702 64.3605 136.001 63.5446 136.403 62.6473L137.044 61.2178L137.848 60.5282C138.737 59.7759 138.824 59.7327 140.428 59.1916C141.193 58.9409 141.527 58.8719 141.543 58.9613C141.554 59.0389 141.536 59.5791 141.508 60.1692L141.445 61.237L140.732 61.6479C138.239 63.0688 135.846 65.4204 134.504 67.7596L134.192 68.3046L134.559 68.0127C136.324 66.612 138.108 65.3665 139.852 64.3128C141.196 63.4996 141.224 63.4852 141.224 63.7131C141.226 63.8329 141.275 63.7999 141.363 63.6022C141.475 63.3783 141.83 63.1632 143.275 62.4502C144.247 61.9636 146.184 61.0791 147.572 60.4684C148.969 59.8619 150.55 59.1462 151.091 58.8682C151.728 58.5511 152.09 58.4212 152.109 58.503C152.136 58.6701 151.805 60.2846 151.483 61.5556L151.223 62.5623L146.808 63.7517C141.368 65.2211 139.55 65.8395 136.948 67.1019C135.398 67.8496 134.506 68.3816 133.049 69.3993C130.315 71.306 128.29 73.439 126.572 76.1664C125.797 77.4173 125.719 77.5922 126.096 77.2774C129.834 74.159 133.909 71.5202 138.429 69.2915C140.077 68.4777 141.079 68.0231 145.354 66.141C147.4 65.241 149.35 64.2797 150.348 63.6859C150.719 63.4597 151.015 63.3274 151 63.3848C150.991 63.4541 150.777 64.107 150.541 64.8595L150.102 66.2152L146.033 67.3127C141.043 68.6554 139.423 69.2075 136.924 70.4156C132.817 72.4004 129.684 75.0962 127.396 78.6183C127.08 79.0976 126.759 79.6384 126.683 79.8057C126.554 80.0947 126.628 80.0548 127.489 79.3634C129.502 77.736 130.888 76.7505 133.034 75.4022C135.969 73.5491 138.386 72.3226 143.734 69.9806C146.406 68.8135 148.615 67.7495 149.352 67.2853L149.804 67.0041L149.554 67.7137C149.424 68.1031 149.173 68.7392 149.005 69.1388L148.693 69.8577L147.495 70.1971C142.209 71.699 139.911 72.6594 137.453 74.379C136.695 74.9157 136.143 75.2165 135.554 75.4271C133.751 76.0615 131.828 77.0895 130.319 78.2212C129.459 78.8586 128.082 80.1496 127.597 80.7541C127.422 80.9681 126.916 81.3439 126.339 81.6785C125.235 82.3342 123.677 83.4255 122.83 84.16C122.227 84.6753 120.568 86.3695 120.607 86.4327C120.619 86.4563 120.879 86.3266 121.192 86.1563C122.314 85.5361 124.684 84.389 126.065 83.7935C129.311 82.3997 132.687 81.3197 137.563 80.1275C140.774 79.339 143.676 78.5124 144.626 78.1254C144.902 78.0117 145.129 77.9311 145.144 77.9471C145.147 77.9665 144.926 78.4337 144.636 78.9796L144.123 79.9733L142.538 80.2215C139.445 80.6974 137.524 81.0687 136.112 81.4313C132.982 82.2652 130.589 83.4385 128.356 85.2319C127.934 85.5721 127.307 85.9667 126.86 86.1593C124.66 87.1271 122.486 88.5633 120.891 90.113C120.297 90.6865 119.508 91.593 119.685 91.499C124.693 88.7856 128.615 87.3389 135.548 85.6257C138.621 84.8671 140.542 84.3219 141.648 83.8865L142.194 83.6744L141.59 84.8193C141.263 85.4488 140.928 86.0201 140.849 86.0946C140.762 86.1648 139.591 86.4434 138.246 86.7079C135.419 87.2668 132.479 88.0033 131 88.5179C126.494 90.0866 123.274 92.3505 120.765 95.7371C120.447 96.17 120.192 96.5394 120.204 96.563C120.215 96.5866 120.859 96.1809 121.623 95.6559C125.471 93.0438 128.83 91.3991 134.848 89.1933C136.421 88.6202 138.3 87.892 139.035 87.5823C139.764 87.2609 140.37 87.0122 140.37 87.0122C140.389 87.0207 140.406 86.9826 138.925 89.5331C138.295 90.6115 137.731 91.5184 137.686 91.5438C137.641 91.5692 136.765 91.615 135.748 91.6518C133.532 91.7266 132.418 91.8024 131.362 91.9499C127.22 92.5311 124.158 94.1169 121.85 96.881C120.802 98.1375 120.808 98.1493 122.208 97.3613C125.678 95.3923 127.478 94.7655 134.58 93.0005L137.278 92.3288L137.004 92.7632C136.707 93.2509 136.931 93.1508 134.146 93.9932C130.619 95.0601 129.485 95.4829 127.602 96.4196C125.099 97.6623 123.113 99.256 121.57 101.267C120.985 102.019 120.05 103.527 120.004 103.78C119.989 103.864 120.3 103.648 120.691 103.302C122.552 101.662 125.128 99.8306 127.392 98.5445C128.011 98.1921 129.824 97.2605 131.417 96.4679C134.309 95.0344 136.014 94.1184 136.085 93.9587C136.106 93.9131 136.16 93.8918 136.198 93.9086C136.235 93.9254 136.06 94.2668 135.8 94.6708C135.259 95.5245 135.188 95.885 135.528 96.1291C135.68 96.2427 135.819 96.2593 136.045 96.2056C136.301 96.1375 136.428 96.0031 136.762 95.4858C137.459 94.3828 137.321 94.3392 138.123 95.8863C138.511 96.6265 139.348 98.0706 139.978 99.0745C140.605 100.086 141.324 101.24 141.581 101.647C143.55 104.832 145.569 109.134 146.444 112.048C146.554 112.38 146.659 112.647 146.685 112.64C146.787 112.613 146.718 110.81 146.584 109.754C146.304 107.619 145.401 104.968 144.309 103.063C143.121 100.996 142.129 99.6463 139.423 96.4237C138.42 95.2248 137.59 94.2407 137.584 94.2289C137.587 94.2213 137.962 93.6128 138.416 92.8758L139.247 91.5497L139.757 92.418C140.388 93.4953 141.132 94.596 143.069 97.3004C145.19 100.27 146.056 101.626 147.454 104.153C148.106 105.332 149.351 107.999 149.685 108.935C149.784 109.217 149.894 109.448 149.919 109.442C150.009 109.418 149.741 107.206 149.544 106.314C149.209 104.803 148.658 103.323 147.851 101.737C146.501 99.1043 145.261 97.4797 141.753 93.7878L139.391 91.3038L139.631 90.9184C139.762 90.7029 139.985 90.3555 140.119 90.1324C140.322 89.8036 140.387 89.7596 140.501 89.8564C141.723 90.9704 143.028 91.9484 146.417 94.2994L148.356 95.644L148.676 96.4359C149.447 98.3797 150.156 100.762 150.706 103.246C151.04 104.784 151.082 104.766 151.233 102.925C151.36 101.338 151.273 99.9753 150.907 98.158C150.839 97.8078 150.832 97.5487 150.879 97.5697C151.085 97.6621 153.565 99.8066 154.622 100.81C155.234 101.377 156.146 102.279 156.648 102.815C157.163 103.347 157.602 103.772 157.628 103.766C157.717 103.742 156.663 101.954 155.961 100.936C155.444 100.183 155.262 99.8097 154.963 98.8717C154.508 97.453 153.202 94.8216 152.336 93.5928C150.492 90.9575 148.438 88.9134 143.83 85.093C143.533 84.8506 143.43 84.704 143.463 84.5815C143.511 84.3746 144.484 82.6557 144.564 82.6277C144.599 82.6251 144.95 83.0472 145.363 83.5798C145.768 84.1081 147.04 85.6103 148.186 86.9186C152.103 91.3786 153.804 93.7306 155.757 97.4014L156.349 98.5159L156.249 97.7861C155.84 94.7349 154.399 91.6505 152.166 89.005C150.814 87.4034 149.582 86.2387 146.628 83.745C145.666 82.93 144.855 82.2287 144.832 82.1815C144.808 82.1343 145.005 81.7202 145.266 81.2622C145.528 80.8042 145.848 80.2169 145.964 79.9584C146.083 79.6922 146.197 79.4877 146.225 79.5003C146.253 79.5129 146.501 79.8888 146.781 80.3432C147.052 80.7933 147.878 81.9858 148.596 82.9929C151.207 86.6024 151.961 87.6803 152.893 89.1393C153.864 90.6616 156.077 94.9327 156.532 96.1505C156.669 96.5225 156.805 96.821 156.827 96.8218C156.853 96.815 156.828 96.393 156.781 95.8968C156.579 93.8884 155.978 91.7922 155.064 89.8664C153.712 87.0131 151.763 84.486 147.861 80.5443L146.447 79.1065L147.117 77.763C147.486 77.0153 147.86 76.3063 147.946 76.1896L148.106 75.9597L148.24 76.2118C148.58 76.8576 149.699 78.5011 151.134 80.4688C153.073 83.1192 153.956 84.4104 155.046 86.1687C155.944 87.6033 157.76 91.1301 158.297 92.4667C158.473 92.9019 158.639 93.2594 158.664 93.2526C158.754 93.2287 158.456 91.0585 158.245 90.1238C157.525 87.0884 155.96 84.1309 153.427 81.0767C152.896 80.4279 151.513 78.9217 150.367 77.7409L148.263 75.5829L148.88 74.2067C149.218 73.4539 149.513 72.8464 149.541 72.859C149.569 72.8716 149.913 73.3089 150.317 73.8373C151.047 74.7945 152.127 76.0735 154.787 79.1206C158.661 83.552 160.801 86.5572 163.419 91.2293C163.883 92.0495 163.986 92.1962 163.932 91.9161C163.884 91.7212 163.794 91.2698 163.72 90.9079C163.292 88.8527 162.314 86.3683 161.191 84.4581C159.202 81.0913 156.964 78.6078 152.221 74.5084C151.223 73.6496 150.252 72.8034 150.071 72.6308L149.73 72.3133L150.21 71.2412C150.473 70.6557 150.716 70.1893 150.744 70.2019C150.772 70.2145 150.924 70.4015 151.089 70.6122C151.569 71.2476 152.452 72.2374 154.509 74.4478C157.953 78.1567 159.758 80.4275 161.858 83.6979C162.217 84.2516 162.668 85.0019 162.875 85.3686C163.072 85.7311 163.258 86.043 163.296 86.0598C163.39 86.1018 162.997 84.5192 162.672 83.5881C162.504 83.1107 162.11 82.1578 161.777 81.4698C161.374 80.6131 161.188 80.1003 161.195 79.8572C161.217 79.2824 161.004 77.826 160.755 76.9015C160.486 75.8951 159.669 74.1311 159.031 73.1694C158.789 72.8053 158.563 72.4572 158.533 72.3982C158.416 72.2086 160.197 73.957 161.505 75.3291C163.769 77.7053 166.07 80.527 167.807 83.0503C168.206 83.6403 168.551 84.1241 168.579 84.1367C168.645 84.1661 168.47 83.6035 168.038 82.4329C167.553 81.0826 166.703 79.3406 165.928 78.1345C165.403 77.2966 165.303 77.0689 165.23 76.4791C165.024 74.9071 164.261 72.7201 163.438 71.3191C161.723 68.4218 159.831 66.4685 155.213 62.8449C154.367 62.1731 153.669 61.6226 153.663 61.6108C153.636 61.5712 154.025 59.8004 154.062 59.8172C154.081 59.8256 154.535 60.2939 155.071 60.8541C155.607 61.4142 157.112 62.8745 158.419 64.0998C164.235 69.5668 167.308 72.9997 170.377 77.4446C170.806 78.0666 171.221 78.6725 171.291 78.7678C171.366 78.8748 171.341 78.6807 171.238 78.3332C170.867 77.0797 170.353 75.8173 169.612 74.3342C169.091 73.2879 168.763 72.4648 168.538 71.6609C167.352 67.3572 165.016 63.5876 161.148 59.7707C159.901 58.5361 158.559 57.3404 155.661 54.8719C155.11 54.3962 155.066 54.2942 155.18 53.7883C155.217 53.6043 155.259 53.3856 155.265 53.2969C155.276 53.1467 155.286 53.1509 155.494 53.3631C155.966 53.8668 157.21 54.8812 161.237 58.0664C164.86 60.9242 167.907 63.8886 170.598 67.1687L170.854 67.4754L170.747 67.1625C170.644 66.815 169.642 64.8859 169.137 64.0295C168.758 63.3939 168.77 63.4175 170.473 65.4412C171.885 67.1339 173.401 69.12 174.696 70.9978C175.241 71.79 175.705 72.4364 175.727 72.4372C175.743 72.4262 175.693 72.2119 175.619 71.9504ZM164.432 75.9752C162.952 74.0329 160.862 71.972 158.363 69.993C157.866 69.5966 156.344 68.4756 154.995 67.496C153.642 66.5241 152.526 65.6765 152.512 65.6065C152.495 65.5441 152.606 65.1463 152.749 64.7265C152.896 64.2991 153.119 63.5769 153.242 63.1023C153.37 62.6395 153.491 62.2459 153.503 62.2425C153.529 62.2357 153.835 62.5828 154.195 63.0091C154.551 63.443 155.735 64.7412 156.826 65.8968C160.16 69.4473 161.73 71.3658 163.344 73.8616C164.053 74.9649 165.084 76.7056 165.056 76.7664C165.049 76.7817 164.769 76.4278 164.432 75.9752ZM153.295 97.7494C152.934 97.3501 151.656 96.2378 150.803 95.5813L149.879 94.8566L149.33 93.7242C148.861 92.7377 148.006 91.2312 147.274 90.0807C146.96 89.6019 147.162 89.8024 148.543 91.3896C149.902 92.949 151.649 95.1752 152.686 96.6999C153.437 97.7854 153.614 98.0931 153.295 97.7494ZM164.542 67.3024C163.242 65.9615 161.21 64.1461 159.662 62.9585C159.319 62.6951 157.945 61.6953 156.62 60.7359L154.202 59.0033L154.568 57.0848C154.773 56.0259 154.959 55.1595 154.984 55.1527C155.01 55.1459 155.333 55.5284 155.701 56.013C156.072 56.4899 157.115 57.725 158.007 58.7461C161.927 63.2254 163.368 65.0041 165.084 67.4726C165.563 68.162 165.956 68.7402 165.952 68.7478C165.949 68.7554 165.317 68.1068 164.542 67.3024ZM172.896 47.8968C172.868 47.8842 172.616 47.5429 172.315 47.1342C171.612 46.1431 170.716 45.0562 169.722 43.9619C168.96 43.1271 168.912 43.0597 169.044 42.8906C169.206 42.6801 170.157 41.2617 170.341 40.9516C170.414 40.8383 170.515 40.7647 170.558 40.7933C170.611 40.8261 171.167 41.5685 171.807 42.4491L172.978 44.052L172.99 44.6512C173.02 45.5872 173.003 47.7075 172.965 47.8181C172.944 47.8637 172.915 47.9052 172.896 47.8968ZM159.274 77.4432C157.946 75.7149 156.134 73.9615 152.931 71.3198L150.963 69.6882L151.555 68.1179C152.101 66.6734 152.239 66.4157 152.303 66.7C152.35 66.9218 153.289 68.2652 154.724 70.206C156.929 73.1672 157.693 74.3227 158.839 76.4076C159.506 77.6292 159.621 77.8999 159.274 77.4432ZM172.729 42.4243C172.623 42.1579 172.25 41.3602 171.905 40.6486L171.278 39.3627L171.838 38.0153L172.397 36.6678L172.582 38.212C172.769 39.7756 173.005 42.7124 172.956 42.8459C172.939 42.8839 172.831 42.6984 172.729 42.4243ZM166.607 49.1772C165.817 48.4302 165.726 48.3072 165.776 48.1197L165.831 47.8976L166.194 48.3163C166.664 48.8741 167.516 49.9594 167.503 49.9898C167.496 50.005 167.086 49.6387 166.607 49.1772ZM147.082 93.091C146.848 92.9125 145.226 92.0391 142.933 90.8556C140.484 89.5931 140.422 89.5561 140.557 89.4064C140.61 89.3388 141.195 88.3593 141.871 87.2285C142.537 86.0935 143.099 85.1672 143.125 85.1604C143.23 85.1256 144.388 86.7588 144.513 87.1072C144.721 87.7212 145.419 89.2761 146.382 91.3158C146.863 92.3259 147.245 93.1548 147.238 93.17C147.228 93.1928 147.157 93.1516 147.082 93.091ZM161.978 56.7912C161.092 56.1567 159.199 54.9605 157.15 53.7588C156.2 53.1953 155.41 52.7227 155.404 52.7109C155.371 52.6594 155.715 50.5123 155.753 50.5291C155.772 50.5375 155.928 50.6899 156.087 50.8618L156.394 51.1819L156.021 51.8368C155.823 52.2044 155.686 52.5085 155.714 52.5211C155.743 52.5337 155.957 52.356 156.196 52.1251C156.447 51.8907 156.672 51.6902 156.723 51.6766C156.778 51.6554 157.338 52.1623 157.976 52.7956C158.627 53.4256 159.942 54.6821 160.908 55.5899C161.876 56.4901 162.657 57.2328 162.641 57.2438C162.619 57.243 162.324 57.047 161.978 56.7912ZM168.209 39.5846C168.295 38.4905 168.332 38.1326 168.379 38.1266C168.405 38.1197 168.488 38.1846 168.58 38.2806C168.73 38.4482 168.675 38.6973 168.293 39.6224L168.183 39.8927L168.209 39.5846ZM163.273 50.0656C163.254 50.0572 163.038 49.8871 162.794 49.6775C162.547 49.4755 161.895 48.973 161.339 48.5589C160.782 48.1448 160.306 47.7762 160.282 47.7289C160.264 47.6935 160.389 47.4662 160.561 47.2329L160.885 46.8119L162.207 48.0531C163.397 49.1622 163.522 49.3096 163.477 49.5089C163.404 49.823 163.31 50.0824 163.273 50.0656ZM169.147 36.1144C168.386 35.1521 168.423 35.2694 168.363 33.8996C168.251 31.5391 167.851 28.5925 167.134 24.8735C166.904 23.6561 166.728 22.6183 166.745 22.5802C166.776 22.5118 167.975 22.072 169.113 21.7151L169.664 21.5417L169.873 23.1061C169.982 23.9676 170.287 25.7209 170.553 27.0092L171.022 29.3479L170.706 30.932C170.529 31.8026 170.23 33.1478 170.024 33.9323C169.559 35.797 169.556 35.8046 169.441 36.1095L169.338 36.3647L169.147 36.1144ZM162.89 45.9762C162.316 45.5267 161.866 45.1242 161.896 45.0828C161.929 45.0337 162.048 44.7946 162.17 44.5479L162.384 44.0959L163.297 45.0443L164.207 46.0003L164.128 46.4031C164.086 46.6218 164.017 46.8009 163.985 46.7959C163.954 46.7909 163.465 46.4256 162.89 45.9762ZM163.772 43.3577L163.068 42.695L163.323 41.9508C163.472 41.5428 163.6 41.2075 163.626 41.2007C163.651 41.1939 163.91 41.4195 164.202 41.6966L164.753 42.1993L164.638 43.1069C164.585 43.6033 164.524 44.0145 164.511 44.0179C164.486 44.0247 164.156 43.7308 163.772 43.3577ZM171.8 24.7554C171.743 24.7302 170.452 21.3383 170.476 21.285C170.51 21.209 172.634 20.563 172.718 20.6008C172.765 20.6218 172.745 20.7408 172.687 20.8701C172.568 21.1362 172.21 22.7111 171.998 23.8856C171.842 24.8111 171.846 24.7764 171.8 24.7554ZM164.782 38.1208C164.637 37.8181 164.552 37.506 164.589 37.4223C164.627 37.3387 164.731 36.7552 164.83 36.133C165.076 34.4806 165.059 34.5187 165.171 34.5691C165.274 34.6153 165.191 38.3132 165.085 38.5489C165.058 38.6097 164.924 38.4311 164.782 38.1208ZM147.255 72.966C147.159 72.9781 145.994 73.1679 144.648 73.3861C143.31 73.6084 142.219 73.7585 142.23 73.7357C142.243 73.7052 143.141 73.2585 144.231 72.7337C145.926 71.9138 147.694 71.0078 148.327 70.6249C148.462 70.5486 148.375 70.7927 147.965 71.7322C147.542 72.6751 147.388 72.9438 147.255 72.966ZM144.449 77.5164C143.906 77.5741 142.543 77.7028 141.415 77.8091C138.786 78.0544 136.938 78.2855 135.432 78.5596C134.769 78.6826 134.238 78.7639 134.248 78.7411C134.258 78.7183 134.722 78.3603 135.271 77.9396C136.43 77.0619 136.786 76.9201 140.615 75.7058C143.772 74.7106 145.342 74.1451 146.432 73.6203L147.311 73.1921L146.366 75.2984L145.421 77.4046L144.449 77.5164ZM143.06 82.0443C142.725 82.7161 142.434 83.1885 142.341 83.2199C142.248 83.2514 140.961 83.3867 139.478 83.5342C137.118 83.7545 135.043 83.9928 133.591 84.2187C133.146 84.2838 133.182 84.2542 134.131 83.8943C135.102 83.5081 136.348 83.0893 138.67 82.35C140.718 81.6974 142.463 81.0918 143.531 80.6667L143.903 80.5139L143.764 80.7253C143.687 80.8461 143.367 81.4334 143.06 82.0443ZM158.424 46.4297C158.255 46.3541 156.578 45.1271 156.527 45.0403C156.461 44.9105 156.68 42.8168 156.755 42.8504C156.793 42.8672 157.257 43.3127 157.784 43.8416C158.309 44.3781 158.809 44.8674 158.883 44.928C158.997 45.0249 158.977 45.1709 158.777 45.693C158.629 46.0469 158.521 46.3637 158.513 46.4059C158.509 46.4405 158.47 46.4507 158.424 46.4297ZM156.527 50.0818C156.055 49.7789 155.887 49.6029 155.896 49.4332C155.924 49.1445 156.343 46.0265 156.367 45.9733C156.381 45.9429 156.756 46.2848 157.204 46.7413L158.013 47.5701L157.41 48.9159L156.803 50.2694L156.527 50.0818ZM159.377 43.3503C159.29 43.2931 158.702 42.874 158.07 42.4264C157.435 41.9863 156.888 41.5764 156.864 41.5292C156.768 41.3673 156.925 40.5154 157.17 39.794L157.424 39.0769L158.751 40.4574L160.078 41.8379L159.947 42.2814C159.876 42.5145 159.744 42.8844 159.664 43.0863C159.54 43.4141 159.501 43.4513 159.377 43.3503ZM159.104 39.5198C158.39 38.9803 157.772 38.5022 157.726 38.4542C157.692 38.4028 157.781 37.9037 157.929 37.3489C158.08 36.7864 158.214 36.262 158.22 36.1733C158.224 36.0383 158.286 36.0753 158.685 36.4644C158.937 36.7052 159.512 37.2552 159.97 37.6889C160.428 38.1226 160.83 38.5311 160.859 38.5901C160.916 38.6887 160.538 40.4367 160.441 40.4757C160.425 40.4867 159.818 40.0593 159.104 39.5198ZM149.587 58.2578C146.75 59.0404 144.932 59.6318 143.545 60.2425C143.086 60.4384 142.725 60.5413 142.733 60.4721C142.738 60.4105 142.855 60.0245 143.001 59.6241C143.147 59.2237 143.305 58.7465 143.349 58.5472C143.416 58.3217 143.456 58.2575 143.478 58.3587C143.507 58.4447 143.425 58.8551 143.316 59.2723C143.208 59.6895 143.146 60.0543 143.163 60.0897C143.194 60.1217 143.532 59.6432 143.919 59.0313L144.623 57.9131L146.192 57.4751C148.786 56.7571 150.545 56.2216 151.635 55.8242C152.548 55.4939 152.669 55.4751 152.651 55.6405C152.549 56.3439 152.388 57.3039 152.357 57.3993C152.33 57.4602 151.089 57.8443 149.587 58.2578ZM160.198 35.9007C159.619 35.4858 159.006 35.0465 158.836 34.9245L158.533 34.6973L158.702 33.7685C158.798 33.2542 158.87 32.7662 158.873 32.6852C158.866 32.4995 158.876 32.5037 159.744 33.6784C161.426 35.9217 161.559 36.1273 161.468 36.4061C161.428 36.5437 161.355 36.657 161.32 36.6596C161.276 36.658 160.777 36.3156 160.198 35.9007ZM150.804 54.8672C149.723 54.9944 148.181 55.1978 147.376 55.3117C146.571 55.4257 145.891 55.5133 145.872 55.5049C145.816 55.4797 146.278 54.8744 146.401 54.8015C146.462 54.7651 147.731 54.1192 149.231 53.358C150.731 52.5968 152.245 51.8052 152.609 51.5943C152.999 51.3765 153.272 51.2704 153.273 51.3439C153.262 51.668 152.862 54.493 152.812 54.5531C152.782 54.5945 151.879 54.7281 150.804 54.8672ZM161.917 33.7489C161.889 33.7363 161.669 33.4734 161.416 33.1591C161.16 32.8525 160.549 32.1583 160.06 31.6191L159.151 30.6361L159.251 29.8594C159.306 29.4364 159.368 29.0716 159.394 29.0648C159.442 29.0588 162.025 31.4503 162.205 31.677C162.321 31.8202 162.039 33.8035 161.917 33.7489ZM161.534 28.7825C160.937 28.3322 160.242 27.8011 159.992 27.6067L159.535 27.2464L159.653 26.2038L159.763 25.1569L160.462 24.8769C161.367 24.5154 163.419 23.7277 163.63 23.658C163.748 23.6198 163.758 23.7244 163.641 24.2109C163.45 25.0384 162.65 29.4562 162.689 29.5194C162.763 29.6805 162.502 29.5088 161.534 28.7825ZM151.79 50.8617C150.901 51.1388 149.81 51.4897 149.362 51.6359L148.543 51.9077L149.428 51.1631C149.916 50.7518 150.647 50.075 151.059 49.6572C151.887 48.8139 153.441 46.9806 153.577 46.6765C153.69 46.4256 153.836 46.5004 153.792 46.8001C153.769 46.9268 153.686 47.7389 153.601 48.6051C153.516 49.4713 153.438 50.2218 153.421 50.2598C153.41 50.3096 152.673 50.5729 151.79 50.8617ZM167.1 15.9444C166.127 16.2842 165.904 16.3302 165.739 16.22C164.937 15.6503 161.016 12.7046 160.983 12.6532C160.965 12.6178 161.144 12.6706 161.388 12.7798C162.371 13.2208 167.474 15.0616 168.378 15.3027C168.73 15.3965 168.817 15.3533 167.1 15.9444ZM162.998 17.4658C162.277 17.745 161.67 17.9936 161.648 17.9929C161.632 18.0039 160.687 17.4522 159.547 16.7583C157.09 15.2637 156.409 14.8761 154.939 14.0892C153.831 13.5008 153.816 13.4848 153.05 12.6576C152.084 11.6029 150.811 10.4021 149.611 9.41626C148.944 8.87075 148.745 8.6627 148.878 8.66748C149.168 8.69724 151.908 9.86203 151.805 9.91628C151.76 9.9417 151.526 9.93713 151.286 9.89376C150.637 9.78543 150.67 9.86386 151.39 10.1138C153.51 10.8546 154.946 11.5166 158.071 13.2013C160.742 14.6456 164.384 16.8087 164.336 16.9151C164.326 16.9379 163.732 17.1831 162.998 17.4658ZM150.793 46.1128C150.381 46.9054 149.914 47.7462 149.773 47.9845L149.503 48.4113L149.761 47.3853C150.313 45.1761 150.596 41.9605 150.443 39.5173C150.334 37.7788 149.887 34.537 149.425 32.129C149.181 30.8686 149.025 29.8122 149.083 29.7833C149.521 29.5326 152.277 28.3298 152.306 28.3888C152.324 28.4242 152.337 29.2243 152.332 30.1629C152.327 31.1015 152.335 32.7398 152.355 33.799C152.416 37.3515 152.303 39.8855 151.973 42.5779C151.744 44.3931 151.821 44.1448 150.793 46.1128ZM157.061 28.5482C156.874 28.3638 156.564 26.4713 156.714 26.438C156.755 26.4202 156.999 26.6298 157.25 26.8977L157.715 27.3896L157.576 27.8018C157.221 28.7935 157.263 28.7487 157.061 28.5482ZM157.945 26.1501C157.852 26.0811 157.782 26.0128 157.792 25.99C157.802 25.9672 157.931 25.9062 158.082 25.8459L158.357 25.7322L158.235 26.006C158.132 26.2341 158.091 26.2519 157.945 26.1501ZM159.36 18.9304C158.908 19.1112 158.508 19.2513 158.452 19.2261C158.405 19.2051 157.99 18.6996 157.534 18.1114L156.714 17.0311L157.427 17.2963C158.983 17.8661 160.379 18.4649 160.273 18.5267C160.215 18.5555 159.807 18.7379 159.36 18.9304ZM131.98 79.3588C131.436 79.517 130.842 79.6887 130.663 79.7364L130.353 79.8257L130.624 79.6732C131.121 79.3936 133.291 78.3668 133.392 78.3665C133.44 78.3605 133.368 78.5202 133.235 78.7163C133.016 79.0291 132.875 79.0935 131.98 79.3588ZM144.233 53.7655C144.187 53.7445 144.172 53.5006 144.184 53.2229C144.288 51.3607 144.081 48.5369 143.671 46.3897C143.146 43.6241 142.328 40.8827 140.755 36.6887C140.264 35.4 139.887 34.3086 139.904 34.2706C139.945 34.1794 144.048 32.1288 144.123 32.1624C144.152 32.175 144.179 32.5894 144.179 33.0916C144.192 34.0656 144.262 35.3391 144.524 39.146C144.913 44.9007 144.921 48.0186 144.526 51.9333C144.328 53.8809 144.336 53.8117 144.233 53.7655ZM153.872 30.4154C153.816 30.1158 153.68 29.4156 153.577 28.8672C153.397 27.9644 153.418 27.5905 153.646 27.7841C153.73 27.8489 154.065 30.739 154.009 30.8877C153.989 30.9333 153.929 30.7149 153.872 30.4154ZM147.509 41.4438C147.154 38.8002 146.85 37.3212 145.803 33.2079L145.379 31.5199L146.511 30.9773C147.132 30.6713 147.684 30.4439 147.734 30.4573C147.772 30.4741 147.799 31.2168 147.789 32.1165C147.77 33.0121 147.777 34.4765 147.786 35.3577C147.856 38.9143 147.839 42.8155 147.752 43.0596C147.741 43.1095 147.632 42.3754 147.509 41.4438ZM156.872 19.9883C156.169 20.303 156.147 20.3022 155.827 20.113C154.553 19.3409 150.033 17.0033 148.328 16.2389C147.158 15.7139 146.996 15.6231 146.314 15.0616C145.117 14.0682 143.574 12.9194 142.144 11.9678C141.323 11.4168 140.887 11.0843 141.013 11.1043C141.369 11.1634 143.442 11.7827 145.031 12.3035C147.034 12.955 148.558 13.5197 150.821 14.4433L152.675 15.2015L153.868 16.3029C155.304 17.641 156.043 18.3012 156.94 19.0597C157.307 19.3704 157.606 19.6322 157.602 19.6399C157.596 19.6551 157.268 19.8094 156.872 19.9883ZM140.727 56.1659C140.369 56.4621 139.97 56.7761 139.84 56.8641C139.546 57.0699 138.153 57.5413 138.14 57.4443C138.126 57.4013 138.161 57.1978 138.225 56.9799C138.364 56.3938 138.607 54.3473 138.651 53.2711C138.67 52.7502 138.768 52.0815 138.863 51.7682C139.517 49.7326 140.06 46.2405 140.077 44.0198C140.085 43.6763 140.105 43.3563 140.125 43.3107C140.278 42.9955 141.3 50.4226 141.443 52.7882C141.489 53.7402 141.556 54.6929 141.575 54.9022C141.611 55.3748 141.534 55.4957 140.727 56.1659ZM154.065 21.2317L153.497 21.4701L152.989 21.023C152.715 20.7814 152.33 20.4353 152.139 20.2585L151.792 19.9292L153.091 20.3932C153.808 20.6507 154.463 20.8713 154.539 20.8779C154.763 20.9053 154.662 20.9789 154.065 21.2317ZM149.301 23.1504C149.02 23.0244 148.999 22.9966 149.173 23.0105C149.476 23.0369 149.841 23.2007 149.734 23.2625C149.686 23.2956 149.485 23.242 149.301 23.1504ZM133.011 60.2035C132.618 60.3014 129.807 62.7307 129.135 63.5526C128.964 63.7589 128.791 63.9188 128.763 63.9062C128.735 63.8936 128.739 63.5577 128.771 63.1609C128.803 62.7641 128.83 62.0002 128.825 61.4592L128.816 60.4776L129.396 59.5597C130.696 57.5126 131.46 55.7089 132.064 53.2582C132.214 52.6493 132.341 52.1401 132.351 52.1173C132.402 52.0032 133.837 56.8298 133.969 57.5647C134.034 57.9224 133.231 60.1381 133.011 60.2035ZM135.317 53.3289C134.759 51.3888 134.198 49.9045 133.332 48.0731C132.893 47.1456 132.681 46.5662 132.685 46.3307C132.713 45.6672 132.487 43.3103 132.171 40.9037L131.857 38.4702L133.152 37.7635C134.119 37.2381 134.478 37.0887 134.513 37.1866C134.676 37.6521 135.097 41.1287 135.239 43.2934C135.331 44.6951 135.431 46.0276 135.448 46.2639C135.509 46.9576 135.401 49.0283 135.252 50.2398L135.108 51.3627L135.33 50.9419C135.458 50.707 135.594 50.5303 135.641 50.5513C135.697 50.5765 135.717 50.6313 135.697 50.6769C135.676 50.7225 135.666 51.1471 135.666 51.6223C135.681 52.3684 135.585 53.0835 135.433 53.4721C135.412 53.5448 135.36 53.4849 135.317 53.3289ZM147.354 24.4324L146.05 25.0809L144.009 24.1653C141.364 22.9885 139.053 22.0709 136.873 21.3396L135.112 20.7509L134.187 20.0532C132.988 19.1408 131.285 18.0211 130.348 17.5276C129.931 17.304 129.605 17.103 129.618 17.0726C129.646 17.0117 131.878 17.7024 134.212 18.4933C135.13 18.8045 137.734 19.7712 140.002 20.6332C145.255 22.6417 146.933 23.239 148.425 23.6249C148.575 23.6651 148.688 23.7155 148.677 23.7383C148.664 23.7687 148.065 24.0756 147.354 24.4324ZM143.41 26.454C142.82 26.765 142.27 27.0388 142.19 27.0668C142.059 27.1085 141.604 26.6942 139.02 24.2022C138.777 23.9656 138.696 23.9472 140.826 24.5647C142.618 25.085 144.354 25.553 144.738 25.6248C144.927 25.6548 144.924 25.6624 144.708 25.7667C144.589 25.8319 143.999 26.1429 143.41 26.454ZM137.4 42.2894C137.297 42.0423 135.933 36.353 135.957 36.2998C135.974 36.2617 136.542 35.9499 137.218 35.5956C138.296 35.0472 138.444 34.9946 138.419 35.1753C138.399 35.2943 138.302 35.8626 138.198 36.446C138.094 37.0295 137.89 38.5365 137.748 39.8063C137.502 41.9608 137.44 42.399 137.4 42.2894ZM128.6 57.6226C128.581 57.6142 128.487 57.1705 128.397 56.6457C128.118 54.959 127.552 52.6594 127.002 50.9514C126.817 50.3846 126.777 49.9736 126.809 48.9472C126.851 47.2489 126.816 45.8723 126.654 43.4984C126.575 42.4215 126.528 41.5236 126.541 41.4932C126.562 41.4475 127.191 41.0723 127.878 40.6952C128.087 40.5791 128.097 40.5833 128.268 41.1805C128.491 41.911 129.047 43.4299 129.745 45.1857C130.196 46.3377 130.246 46.552 130.202 47.126C130.178 47.4806 130.142 48.0124 130.123 48.3053C130.034 50.1101 129.542 53.4147 128.991 55.9717C128.795 56.8609 128.632 57.6006 128.635 57.62C128.641 57.6318 128.618 57.631 128.6 57.6226ZM135.014 31.0273C134.289 31.4416 133.642 31.7545 133.577 31.7251C133.511 31.6957 132.75 31.2356 131.877 30.6982C127.53 27.9998 124.931 26.5967 122.318 25.5253C121.446 25.1617 120.648 24.8588 120.541 24.8472C120.415 24.8272 120.39 24.807 120.48 24.7832C120.71 24.7219 124.8 26.0357 128.545 27.368C132.715 28.8547 135.777 29.8533 136.589 29.9984C136.775 30.036 136.772 30.0436 136.566 30.1521C136.437 30.2132 135.744 30.6054 135.014 31.0273ZM129.65 41.3345C129.262 40.6677 128.964 40.1046 128.996 40.0825C129.139 39.9641 130.581 39.1583 130.621 39.1675C130.65 39.1801 130.625 39.7355 130.572 40.4058C130.513 41.0643 130.458 41.8156 130.45 42.0587C130.448 42.3136 130.422 42.5213 130.397 42.5281C130.384 42.5315 130.04 41.9937 129.65 41.3345ZM120.759 62.865C120.747 62.8414 120.671 62.2592 120.589 61.5647C120.512 60.882 120.324 59.7472 120.184 59.0545L119.936 57.8016L120.379 56.5388C121.432 53.5132 121.604 50.622 120.967 46.2723L120.765 44.8666L121.86 44.2067C122.464 43.8383 123.034 43.5188 123.114 43.4908C123.233 43.4526 123.284 43.6398 123.349 44.3723C123.39 44.8837 123.566 46.0954 123.732 47.0556L124.033 48.8164L123.797 50.4729C123.234 54.5129 122.585 57.4642 121.504 60.879C120.944 62.6283 120.791 63.0439 120.759 62.865ZM124.515 44.055C124.489 43.9884 124.377 43.7101 124.273 43.4166L124.08 42.892L124.378 42.7056C124.756 42.4643 124.87 42.4607 124.78 42.6854C124.745 42.7884 124.687 43.1186 124.658 43.4343C124.582 44.1308 124.568 44.1882 124.515 44.055ZM119.126 54.9176C119.114 54.894 118.912 54.2918 118.678 53.5841C118.444 52.8765 117.85 51.2403 117.363 49.9441C116.885 48.652 116.521 47.5572 116.554 47.5082C116.666 47.3847 119.594 45.5469 119.65 45.5721C119.744 45.6141 119.5 51.9255 119.352 53.3843C119.203 54.7967 119.17 55.0196 119.126 54.9176ZM125.402 36.7082C124.614 37.1859 123.902 37.5698 123.83 37.5556C123.754 37.549 122.94 37.0562 122.016 36.4589C119.176 34.6376 118.396 34.1962 116.223 33.2218C115.14 32.727 114.254 32.3204 114.266 32.317C114.34 32.3041 118.373 33.4189 120.839 34.1411C123.735 34.9832 125.87 35.566 126.53 35.698C126.707 35.7314 126.854 35.7792 126.847 35.7944C126.837 35.8172 126.181 36.2263 125.402 36.7082ZM111.466 61.1631C111.046 60.3175 110.422 59.1515 110.089 58.5639L109.464 57.4984L109.138 55.0412L108.798 52.5875L110.258 51.5892L111.731 50.5875L111.703 51.4789C111.677 52.4901 111.723 54.0177 111.843 55.9073C111.939 57.4483 112.178 61.181 112.241 62.068C112.259 62.4047 112.269 62.6832 112.253 62.6942C112.24 62.6976 111.885 62.0088 111.466 61.1631ZM107.008 66.3881C106.989 66.3797 106.888 66.0786 106.779 65.7192C106.4 64.4076 105.703 62.4239 104.6 59.4907C103.663 56.9884 103.512 56.473 103.62 56.3572C103.921 56.0628 106.483 54.1885 106.558 54.2221C106.595 54.2389 106.666 54.4076 106.713 54.6025C106.752 54.7931 106.976 55.4966 107.199 56.1536L107.613 57.3623L107.463 60.4552C107.374 62.1595 107.25 64.0673 107.195 64.6912C107.096 65.6882 107.042 66.312 107.043 66.3855C107.048 66.3973 107.026 66.3965 107.008 66.3881ZM114.238 43.7935L112.922 44.6463L112.343 44.4323C112.024 44.3165 110.713 43.8019 109.432 43.2729C104.752 41.3662 102.347 40.5341 98.9213 39.6189C98.4283 39.4891 101.263 39.8654 102.901 40.1522C103.82 40.3089 106.105 40.7581 107.967 41.1457C109.842 41.5299 111.812 41.9292 112.357 42.0183C113.16 42.1592 115.233 42.6781 115.514 42.8041C115.645 42.8629 115.564 42.9179 114.238 43.7935ZM107.759 54.5783C107.722 54.5615 107.583 54.344 107.461 54.0885L107.238 53.6324L107.646 53.3766C107.869 53.2301 108.049 53.1284 108.039 53.1512C108.033 53.2399 107.857 54.4852 107.849 54.5545C107.835 54.5849 107.797 54.5951 107.759 54.5783ZM110.274 46.4363C109.104 47.19 109.004 47.2366 108.681 47.1555C108.498 47.1103 107.328 46.7591 106.071 46.3778C104.822 46.0007 103.08 45.5208 102.219 45.3082C101.355 45.1033 100.542 44.8848 100.411 44.826C100.28 44.7672 99.6174 44.3879 98.9372 43.9733C97.266 42.959 95.1852 41.8797 93.9659 41.3877L92.9655 40.9847L93.5922 41.0922C94.6787 41.2781 97.0485 41.7381 97.1609 41.7885C97.2265 41.8179 97.028 41.8842 96.7351 41.9354C96.4514 41.9909 96.282 42.0428 96.3671 42.0535C96.4557 42.0567 97.2033 42.1454 98.0268 42.2407C100.134 42.4827 100.965 42.6362 103.567 43.2822C104.82 43.5977 106.121 43.9072 106.439 43.9766C107.165 44.1379 111.573 45.5211 111.546 45.5819C111.536 45.6047 110.957 45.9934 110.274 46.4363ZM91.6731 87.8142C91.6612 87.7906 91.6529 87.3576 91.6437 86.8512C91.6171 85.5059 91.3032 83.0453 90.9573 81.4837C90.6972 80.3077 90.6795 80.0714 90.8125 79.7749C91.0375 79.273 91.366 77.9134 91.5343 76.8107C91.8555 74.6898 91.8173 72.6177 91.3938 69.5235C91.2359 68.3203 91.1231 67.2925 91.1504 67.2316C91.222 67.072 92.264 66.078 92.3295 66.1074C92.3576 66.12 92.4129 66.3731 92.4477 66.6718C92.4858 66.9629 92.6727 68.0513 92.8775 69.0747C93.8451 74.1664 94.2518 76.696 94.388 78.675C94.4642 79.659 94.4471 79.7974 94.0641 81.1783C93.5752 82.9957 93.0576 84.5262 92.3269 86.3813C91.8026 87.7262 91.7105 87.9315 91.6731 87.8142ZM105.194 48.332C104.239 47.6022 104.159 47.5298 104.43 47.5782C104.673 47.614 107.095 47.9329 107.722 48.0134C107.82 48.0208 107.563 48.2433 107.064 48.5769L106.255 49.1273L105.194 48.332ZM95.5101 71.9084C95.1343 70.5891 94.6692 69.1932 93.8901 67.1177L93.1867 65.2497L94.6674 63.9045C95.4793 63.1726 96.4377 62.3147 96.7836 61.9949L97.4285 61.4347L97.2195 62.3274C96.9387 63.5805 96.6525 65.498 96.3541 68.0949C95.9616 71.5538 95.8377 72.5576 95.7865 72.6717C95.772 72.7291 95.6436 72.3884 95.5101 71.9084ZM104.664 50.2677C104.133 50.6233 103.876 50.7454 103.703 50.7044C100.156 49.8351 97.7408 49.3001 95.7439 48.9617C95.0261 48.8316 94.7536 48.7368 92.4607 47.7542C91.0082 47.1302 89.5105 46.5316 88.8898 46.3354C88.2878 46.1477 87.8024 45.9757 87.7905 45.9521C87.7667 45.9049 89.3277 45.9108 90.8461 45.9615C92.9495 46.0372 96.1982 46.3433 98.6728 46.695L99.9842 46.8813L101.628 47.7556C102.525 48.2398 103.746 48.8787 104.344 49.1745C104.93 49.4737 105.409 49.7343 105.402 49.7495C105.396 49.7647 105.065 50.0001 104.664 50.2677ZM102.006 52.1809C101.812 52.313 101.698 52.3166 101.454 52.2074C100.883 51.9512 100.934 51.8372 101.629 51.8931C101.986 51.9252 102.269 51.9702 102.262 51.9854C102.252 52.0082 102.135 52.0929 102.006 52.1809ZM85.1373 87.3126C84.7552 85.0041 84.1302 82.8607 82.6843 78.961C82.2157 77.6731 81.8321 76.597 81.8517 76.5783C82.0273 76.3374 83.969 74.3404 83.9868 74.3759C83.9988 74.3995 84.0496 74.8881 84.0851 75.4611C84.1206 76.0341 84.3141 77.5091 84.506 78.7368C84.9543 81.6503 85.1707 83.2999 85.2417 84.446C85.3322 85.7743 85.3798 87.8506 85.3184 87.9874C85.2911 88.0483 85.212 87.7479 85.1373 87.3126ZM99.8685 53.8618L98.8743 54.6489L97.3944 54.1862C96.5821 53.9406 95.3832 53.6039 94.7361 53.4415L93.5644 53.1444L92.8453 52.2648C92.4461 51.7753 92.0469 51.2857 91.9558 51.1627C91.7788 50.9554 91.8359 50.9536 93.7715 51.1276C95.7164 51.3057 95.7888 51.3199 97.0762 51.7602C98.4326 52.2224 100.694 52.8986 100.865 52.8932C101.062 52.881 100.827 53.1043 99.8685 53.8618ZM89.4864 76.3855C89.4286 76.2134 88.9361 74.8784 88.3935 73.4295C87.8602 71.9848 87.4494 70.7686 87.4886 70.7313C87.5278 70.6941 88.0833 70.1578 88.724 69.5318C89.3647 68.9059 89.9065 68.4 89.9346 68.4126C90.0564 68.4671 89.7539 76.2406 89.6242 76.63C89.6038 76.6756 89.5408 76.5652 89.4864 76.3855ZM80.5425 95.5266C80.5144 95.514 80.46 95.2339 80.4168 94.9039C80.2971 93.9918 79.8254 91.908 79.4522 90.6081C78.9905 89.0038 78.5415 87.6973 77.4587 84.8189L76.5248 82.3361L77.4442 81.3145C78.0253 80.6709 78.3874 80.3401 78.4035 80.4295C78.4171 80.4996 78.5836 81.4327 78.7806 82.4983C78.9684 83.5597 79.2835 85.2902 79.4908 86.333C79.9648 88.8379 80.3348 91.625 80.488 93.7669C80.608 95.6564 80.6081 95.556 80.5425 95.5266ZM96.5494 56.6475C96.2887 56.8777 96.2478 56.8685 96.0427 56.5482L95.8921 56.3071L96.3571 56.3238C96.8697 56.3345 96.8723 56.354 96.5494 56.6475ZM94.4495 58.1443C94.1693 58.0917 93.9872 57.9461 93.0789 57.0365C92.5052 56.4596 92.0396 55.9677 92.0498 55.9448C92.0737 55.8916 93.7905 56.077 93.9497 56.1484C94.0152 56.1778 94.3651 56.5265 94.7387 56.9224L95.4282 57.6425L95.0993 57.9243C94.8421 58.1469 94.7075 58.1961 94.4495 58.1443ZM93.3588 59.4727C93.2268 59.5413 91.8814 59.3307 91.6004 59.2047C91.5723 59.1921 92.0066 59.1768 92.5576 59.1773C93.112 59.1702 93.571 59.1751 93.5897 59.1835C93.674 59.2213 93.5258 59.4014 93.3588 59.4727ZM90.3735 62.3168L89.8146 62.8607L89.2228 62.6501C83.134 60.5497 79.343 59.973 75.0481 60.4945C73.8907 60.6422 71.2845 61.2361 70.7411 61.4947L70.4328 61.6304L70.7436 61.6146C72.343 61.5098 75.2426 61.5407 77.2489 61.6824C79.3625 61.8357 81.1567 62.0741 84.539 62.6593C86.9293 63.0737 87.9656 63.2462 89.1067 63.4108C89.2327 63.4308 87.7033 65.0099 87.5176 65.0728C87.4154 65.1 86.9624 65.0065 82.4366 64.0363C76.4641 62.7552 72.8237 62.3191 68.9693 62.4354C68.1612 62.4566 67.4961 62.4597 67.4935 62.4403C67.4816 62.4167 67.6742 62.0373 67.9231 61.5826L68.3706 60.7604L69.0179 60.6215C72.2986 59.9282 74.7794 59.5886 76.0593 59.6694C78.7205 59.8308 82.5994 60.2369 85.5687 60.6643C87.236 60.9097 90.8831 61.5315 91.0517 61.6071C91.0798 61.6197 91.0593 61.6654 91.0074 61.706C90.9682 61.7432 90.6742 62.0224 90.3735 62.3168ZM77.1278 91.4015C76.5086 89.7721 76.0926 88.8184 75.2104 86.998L74.203 84.9297L74.7543 84.3276C75.0593 83.9986 75.4172 83.602 75.5552 83.4447L75.8048 83.1639L76.0009 84.5579C76.2063 86.0565 76.5129 87.7557 77.0074 90.215C77.1799 91.0595 77.3218 91.7716 77.3116 91.7944C77.3013 91.8172 77.2248 91.6368 77.1278 91.4015ZM91.6965 57.686C91.4478 57.6384 90.581 57.5145 89.7771 57.4006C88.5253 57.232 88.2801 57.1768 88.1584 57.0218C88.0758 56.93 87.7882 56.5178 87.4971 56.1133L86.9857 55.3725L87.3518 55.4089C87.5605 55.4202 88.1284 55.4831 88.6241 55.5319L89.5233 55.6338L90.8428 56.6547C91.569 57.2178 92.1614 57.7027 92.1512 57.7256C92.141 57.7484 91.9358 57.7294 91.6965 57.686ZM72.1213 98.5267C71.8375 97.3035 71.2405 95.474 70.3279 93.019C69.8524 91.7463 69.4663 90.6507 69.4621 90.5849C69.457 90.4457 71.9681 87.4802 72.0524 87.518C72.0898 87.5348 72.1213 87.6402 72.1144 87.7559C72.1016 87.8597 72.1718 89.0328 72.2657 90.3535C72.3502 91.67 72.4363 93.3343 72.4641 94.05C72.5001 95.3996 72.415 98.9506 72.3357 99.1525C72.3084 99.2134 72.2097 98.9317 72.1213 98.5267ZM86.5037 66.1798C86.2319 66.4598 85.7574 66.9411 85.4626 67.2473L84.9224 67.7996L83.7039 67.5819C81.3579 67.1692 76.5901 66.4375 75.0505 66.2585C71.9713 65.9005 68.8699 65.7426 66.5305 65.8168C65.8586 65.8352 65.282 65.8415 65.2795 65.8221C65.2642 65.8061 65.4636 65.5119 65.7184 65.1695L66.1785 64.5448L67.7114 64.5381C71.0114 64.5293 73.544 64.6513 78.0658 65.0535C82.7204 65.4604 85.7427 65.6193 86.7689 65.5133C87.1692 65.4736 87.1581 65.5235 86.5037 66.1798ZM83.0173 69.8404C82.5095 70.3707 82.38 70.4587 82.1722 70.4204C80.7808 70.1617 76.0761 69.44 75.0253 69.325C73.1791 69.1272 70.3927 69.0193 68.9748 69.0957C66.5357 69.2166 64.0199 69.6593 62.198 70.2852C61.641 70.4738 61.026 70.6912 60.831 70.7499L60.4852 70.8688L60.8082 70.2739C61.0733 69.8082 61.2735 69.5875 61.7276 69.2523L62.3145 68.8214L63.8398 68.7565C67.1032 68.6035 69.8172 68.5968 74.3604 68.7254C79.9571 68.8881 82.7776 68.92 83.613 68.838L83.9435 68.8036L83.785 69.0065C83.6895 69.1189 83.3419 69.4928 83.0173 69.8404ZM89.2573 52.5645L88.1954 52.4993L87.1866 51.7638C86.6392 51.3539 86.0969 50.9829 85.9845 50.9325C85.8815 50.8863 85.7981 50.8214 85.8117 50.791C85.8288 50.753 86.5509 50.7481 87.4213 50.7639L88.9942 50.7935L89.9075 51.7419C90.7229 52.5825 90.7893 52.6853 90.5747 52.6621C90.4359 52.6456 89.8449 52.6089 89.2573 52.5645ZM79.1977 73.9177C79.1372 73.9271 77.6717 73.7083 75.9456 73.4183C68.562 72.1985 64.7844 71.9931 60.3992 72.5655L59.2606 72.7216L59.6355 72.1865C59.8443 71.8965 60.0369 71.6176 60.0608 71.5643C60.1213 71.4545 62.9479 71.0964 65.0557 70.9366C68.4426 70.6837 70.2446 70.679 76.6715 70.9217L81.8236 71.1225L80.5634 72.5027C79.8741 73.2621 79.2615 73.9007 79.1977 73.9177ZM85.3635 56.9831C84.5068 56.9368 83.7676 56.8793 83.7301 56.8625C83.6365 56.8205 82.4058 55.2 82.3837 55.0988C82.3727 55.0482 82.9773 55.0545 83.742 55.1052L85.1199 55.1934L86.0443 56.092C86.5448 56.5813 86.9525 57.0016 86.9517 57.0286C86.9414 57.0514 86.2329 57.0259 85.3635 56.9831ZM65.4806 102.097C65.4032 101.843 64.9814 100.677 64.5468 99.5137L63.7566 97.3875L64.9504 95.9045C66.566 93.9074 66.462 93.9886 66.4131 94.7248C66.3866 95.0599 66.3179 96.2164 66.2519 97.2918C66.124 99.4081 65.8357 102.083 65.7121 102.383C65.6405 102.543 65.6133 102.504 65.4806 102.097ZM63.2381 100.826C62.9828 100.392 62.6612 99.8553 62.5293 99.6227L62.2893 99.2045L62.7179 98.6752L63.1499 98.1383L63.3775 99.6377C63.5065 100.454 63.6339 101.223 63.662 101.336C63.7742 101.688 63.7129 101.624 63.2381 100.826ZM85.2922 52.6769C85.1534 52.6603 84.99 52.5231 84.7951 52.2804C84.6495 52.0782 84.5253 51.9037 84.5287 51.8961C84.5355 51.8809 84.7713 52.0323 85.0497 52.2394C85.5852 52.6256 85.6482 52.7361 85.2922 52.6769ZM81.5935 56.9363C81.3116 56.9377 80.7785 56.8722 80.4072 56.7971L79.7405 56.6533L79.1414 55.7819L78.5482 54.9222L79.7132 54.9332C80.3527 54.9369 80.9344 54.9694 81.0093 55.003C81.0842 55.0366 81.5405 55.4239 82.0206 55.8584C82.5101 56.2971 82.9748 56.7156 83.0642 56.7922C83.197 56.8974 83.1391 56.9262 82.6673 56.9247C82.3539 56.9212 81.8753 56.9349 81.5935 56.9363ZM85.3963 48.5316C84.7644 48.5861 83.8523 48.6885 83.3558 48.7672C82.8721 48.8425 82.3807 48.8596 82.2683 48.8092C82.1559 48.7588 81.9525 48.5854 81.8086 48.4296C81.6682 48.2661 81.2188 47.7632 80.8059 47.3041L80.0757 46.4743L81.3768 46.7838C84.4413 47.5005 86.6424 48.1862 86.5503 48.3915C86.5401 48.4143 86.0189 48.4728 85.3963 48.5316ZM81.4746 52.5357L80.4135 52.5439L80.033 52.0628C79.8322 51.8083 79.5488 51.462 79.4117 51.291L79.1615 50.9961L80.1358 50.9307L81.11 50.8653L81.8446 51.6605C82.2514 52.1078 82.5783 52.4827 82.568 52.5055C82.5484 52.5241 82.0664 52.5454 81.4746 52.5357ZM64.4039 91.8053L63.9284 92.414L62.1376 92.1681C61.1447 92.0242 60.0249 91.8873 59.64 91.8426C59.2645 91.802 58.9366 91.7555 58.9247 91.7319C58.9162 91.7006 63.3278 91.0944 64.9263 90.9163C65.1171 90.8922 65.1231 90.904 65.0046 91.0427C64.9356 91.1213 64.668 91.4671 64.4039 91.8053ZM62.0452 94.8574C61.9771 94.909 61.7352 94.9467 61.4917 94.9379C60.9603 94.9188 61.048 94.8486 61.7098 94.7526C62.2063 94.6739 62.2344 94.6865 62.0452 94.8574ZM60.4731 96.8831C60.1092 97.3684 59.7863 97.7624 59.7735 97.7658C59.7514 97.765 58.5242 97.717 57.0348 97.6518C54.3345 97.5277 52.3273 97.5134 50.8233 97.6061C50.3949 97.6332 50.0211 97.6391 50.0185 97.6197C50.0066 97.596 50.5253 97.4177 51.1777 97.2171C51.9358 96.9817 52.7644 96.8144 53.4883 96.7555C56.7373 96.459 58.6314 96.249 60.9155 95.9216C61.0714 95.9002 61.1914 95.9084 61.1744 95.9464C61.1573 95.9844 60.8429 96.4096 60.4731 96.8831ZM77.8697 56.3349C77.8041 56.3055 77.237 56.2156 76.6154 56.1469L75.4828 56.0134L75.1347 55.5103C74.7288 54.9355 74.6709 54.9643 76.0113 54.9353L76.7973 54.9133L77.4749 55.6099C78.0818 56.2382 78.2256 56.4945 77.8697 56.3349ZM55.6288 103.296C55.0101 104.123 54.4946 104.796 54.4784 104.807C54.3924 104.823 48.2074 104.543 48.2176 104.52C48.2756 104.391 52.1186 103.046 54.8117 102.208C57.1148 101.487 56.987 101.521 56.8618 101.675C56.7996 101.738 56.244 102.476 55.6288 103.296ZM77.8561 52.703L77.0334 52.7816L76.5449 52.115C76.2683 51.7535 76.0351 51.4206 76.03 51.3818C76.0155 51.3388 76.3025 51.2757 76.6585 51.2344L77.3135 51.1537L78.0097 51.8586C78.3902 52.2393 78.7026 52.5712 78.6924 52.594C78.6821 52.6168 78.31 52.6691 77.8561 52.703ZM78.9798 49.7456L78.2167 49.9422L77.4992 49.2095C76.1653 47.8441 73.5136 45.7051 72.6988 45.3397C72.5302 45.2641 72.4596 45.1959 72.5234 45.1789C72.7082 45.143 75.7865 45.6285 76.0207 45.7335C76.208 45.8175 77.4133 46.9425 77.3827 47.011C77.3724 47.0338 77.0293 46.9712 76.6333 46.8758C76.2246 46.7839 75.8406 46.7121 75.7894 46.7257C75.7383 46.7393 76.3266 47.058 77.1031 47.4336C78.5028 48.1252 78.5216 48.1336 79.1532 48.7822C79.503 49.1309 79.7745 49.4535 79.7609 49.484C79.7438 49.522 79.3887 49.6367 78.9798 49.7456ZM51.0068 109.589C50.6685 110.067 50.3404 110.523 50.2748 110.594C50.2023 110.68 49.6249 110.814 48.9317 110.905C48.2478 111 47.0418 111.181 46.2489 111.318C44.8037 111.556 44.7943 111.552 43.4872 111.331C42.7659 111.208 41.8616 111.068 41.4861 111.027C41.1012 110.982 40.7861 110.932 40.7836 110.913C40.7597 110.866 44.0481 110.13 46.4796 109.65C47.6652 109.414 49.3677 109.054 50.2577 108.851C51.1477 108.647 51.8197 108.528 51.7541 108.599C51.6885 108.671 51.3544 109.114 51.0068 109.589ZM48.9642 112.362C48.856 112.378 48.1918 112.253 48.1774 112.21C48.1442 112.159 49.2719 111.751 49.3596 111.782C49.4192 111.799 49.0502 112.346 48.9642 112.362ZM70.725 55.8616L70.3596 55.8987L70.1843 55.6374C70.0907 55.495 70.0158 55.3609 70.0167 55.3339C70.021 55.2993 70.7994 55.2191 71.7421 55.1487L73.4752 55.0218L73.9297 55.4631L74.3937 55.9086L72.7356 55.8682C71.8244 55.8432 70.9251 55.8417 70.725 55.8616ZM75.6853 50.8711C75.6691 50.8821 75.2725 50.4119 74.8036 49.8272C73.7592 48.5186 72.3361 46.8758 71.765 46.3183C71.5317 46.0858 71.37 45.8946 71.3956 45.8878C71.5233 45.8537 74.7556 48.6549 76.0945 49.9586L76.635 50.4841L76.1828 50.6649C75.9323 50.7718 75.7109 50.8642 75.6853 50.8711ZM69.5947 60.0125L68.4976 60.5525L68.7738 59.9366L69.05 59.3207L69.945 59.3568C70.4355 59.3667 70.8145 59.3996 70.7693 59.425C70.7276 59.4429 70.2029 59.7099 69.5947 60.0125ZM70.5744 57.4015C70.2295 57.3929 70.0524 57.2861 70.279 57.2324C70.4229 57.1874 70.9636 57.3111 70.9363 57.372C70.9261 57.3948 70.7609 57.412 70.5744 57.4015ZM68.7094 57.3962C67.8229 57.3913 67.8135 57.3871 67.7097 57.1671C67.6153 56.9512 67.6187 56.9436 67.915 56.9851C68.076 57.0025 68.5401 57.0463 68.9412 57.08C69.7783 57.1449 69.9477 57.1935 69.7475 57.3138C69.67 57.3612 69.2033 57.3985 68.7094 57.3962ZM66.3734 61.1251L65.1021 62.756L64.3662 62.8918L63.6176 63.031L64.0988 61.1553C64.5475 59.4021 64.5927 59.2763 64.7835 59.2522C65.0347 59.2188 67.6841 59.2561 67.7777 59.2981C67.8058 59.3107 67.7947 59.3606 67.7393 59.4088C67.6874 59.4494 67.0705 60.223 66.3734 61.1251ZM68.0594 56.0361L67.0681 56.1396L66.2104 54.6407C64.8192 52.1993 63.7053 50.3938 62.9504 49.3429C62.8499 49.2157 63.2245 49.5845 63.7667 50.1565C64.3148 50.7402 64.7923 51.2557 64.8255 51.3072C64.8681 51.3628 65.658 52.2102 66.6019 53.1906C67.5331 54.1745 68.289 54.9975 68.2753 55.0279C68.2523 55.0541 67.9695 55.183 67.6425 55.3103C67.3154 55.4376 67.0581 55.5597 67.0701 55.5833C67.082 55.6069 67.4533 55.5817 67.8953 55.5242C68.7793 55.4091 68.7699 55.4049 69.0491 55.6854C69.2824 55.9179 69.3207 55.9077 68.0594 56.0361ZM66.7967 57.3969C66.382 57.3936 66.3002 57.3752 66.0883 57.1706C65.9529 57.0459 65.8525 56.9187 65.8661 56.8883C65.8798 56.8579 66.2059 56.858 66.5943 56.8952C67.2006 56.9479 67.3291 56.9873 67.5105 57.1599C67.7071 57.3485 67.7003 57.3637 67.4908 57.3794C67.3732 57.3906 67.0564 57.3947 66.7967 57.3969ZM62.9523 65.3173C62.9012 65.3309 62.9345 65.1814 63.0197 64.9913C63.1084 64.7936 63.1987 64.6423 63.2175 64.6507C63.2362 64.6591 63.3273 64.6817 63.4159 64.6849C63.5419 64.7049 63.5214 64.7505 63.3076 65.0017C63.1568 65.1624 63.0034 65.3037 62.9523 65.3173ZM65.5704 57.4223C65.0646 57.3964 65.0739 57.4006 65.1967 57.1269C65.2922 56.914 65.3305 56.9038 65.4973 57.0334C65.5995 57.1066 65.7578 57.205 65.8515 57.247C66.1137 57.3646 65.9877 57.4451 65.5704 57.4223ZM64.6925 57.2478C64.6345 57.3771 64.3449 57.4208 63.375 57.4515C62.6903 57.4733 62.1009 57.483 62.0635 57.4662C62.026 57.4494 62.0712 57.3235 62.1709 57.1765C62.3865 56.8713 62.2273 56.9003 61.8907 57.2243C61.6683 57.4443 61.119 57.5906 60.8849 57.4856C60.7725 57.4352 60.518 57.0745 58.3036 53.9352C56.8041 51.8106 55.6466 50.2778 54.4993 48.923C53.6422 47.8993 51.4078 45.5822 50.8554 45.1335C50.2348 44.636 50.6647 44.8562 51.5314 45.4823C54.0513 47.2882 56.1675 49.041 60.0586 52.5303C61.4069 53.7378 63.003 55.1203 63.6143 55.6136L64.7226 56.5033L64.1775 56.6151L63.6325 56.7268L64.341 56.7523C65.0367 56.7812 65.0495 56.7778 64.9115 56.9351C64.8331 57.0095 64.7334 57.1566 64.6925 57.2478ZM61.0549 63.6535C60.9237 63.6952 60.3437 63.9099 59.767 64.1171L58.7066 64.5001L59.0322 63.9246C59.2197 63.6068 59.7831 62.4256 60.2946 61.2851L61.2187 59.2245L61.5858 59.2338C61.7757 59.2368 62.2568 59.2425 62.6435 59.2332L63.3469 59.2199L62.3086 61.3846C61.4289 63.2459 61.2508 63.5678 61.0549 63.6535ZM58.4467 66.7855C57.6972 66.9517 57.0695 67.072 57.0729 67.0644C57.0635 67.0602 57.326 66.6756 57.6447 66.2158C57.9634 65.7559 58.2464 65.3257 58.2771 65.2573C58.3307 65.1626 60.1414 64.8878 60.4948 64.9275C60.5893 64.9425 60.5262 65.1334 60.2227 65.7097L59.8213 66.4795L58.4467 66.7855ZM59.2365 60.4087C58.8718 60.921 57.9983 62.1915 57.2876 63.2244C56.0289 65.0528 54.2139 67.4445 53.638 68.0264C53.4778 68.1829 52.8909 68.5134 52.3193 68.7594C51.7478 69.0054 51.1694 69.2666 51.0315 69.3234C50.7776 69.4379 50.7776 69.4379 51.0291 69.0027C52.2077 67.0015 52.5871 66.2309 54.0261 63.0221L55.6262 59.4289L57.085 59.3617C58.7721 59.2871 59.9541 59.2601 60.029 59.2937C60.0571 59.3063 60.0366 59.3519 59.9813 59.4002C59.9293 59.4408 59.5885 59.8998 59.2365 60.4087ZM57.0287 57.656C56.7154 57.6524 56.4394 57.6657 56.4011 57.6759C56.3628 57.6861 55.7343 57.733 55.0078 57.7726C54.278 57.8197 53.5482 57.8669 53.3923 57.8883C53.0585 57.9304 53.3112 58.2447 51.1675 55.1736C47.7753 50.3462 45.6559 47.898 42.8552 45.5643C42.3402 45.1324 41.8243 44.7275 41.712 44.6771C41.5843 44.6107 41.5723 44.5871 41.6856 44.6105C41.9308 44.6657 43.4241 45.6002 44.908 46.631C47.3274 48.3096 49.3381 49.9968 52.1982 52.7498C55.2737 55.6999 56.9676 57.1902 57.5296 57.4422C57.8293 57.5766 57.6334 57.6623 57.0287 57.656ZM51.1746 58.1176C50.4022 58.2096 49.4799 58.3348 49.117 58.3913C48.7415 58.4512 48.4119 58.4586 48.3412 58.3904C48.2859 58.3382 47.5054 57.3945 46.6313 56.3085C44.1793 53.2726 42.7561 51.7303 40.9719 50.1903L40.1215 49.4528L40.76 49.7848C42.4943 50.7087 44.2923 51.9169 46.9382 53.9436C49.8871 56.1976 50.8465 56.8927 51.7447 57.4234C52.2078 57.695 52.5807 57.9171 52.5739 57.9323C52.5705 57.9399 51.9377 58.0214 51.1746 58.1176ZM45.8719 61.4385C45.5259 61.8587 44.6994 62.9493 44.0245 63.8522C43.2831 64.8532 42.8094 65.4079 42.8324 65.2812C42.8521 65.1622 43.0977 64.3134 43.3809 63.3809C43.67 62.4603 43.96 61.5127 44.0274 61.2872L44.1545 60.8784L45.2276 60.6929C46.9028 60.3939 46.7946 60.4093 46.6319 60.5464C46.557 60.6132 46.2085 61.0141 45.8719 61.4385ZM43.2855 61.7125C42.5731 62.699 42.0191 63.6835 40.6246 66.3917C38.6872 70.135 38.6701 70.173 37.5174 71.163L36.5343 72.0007L36.7586 71.325C37.4187 69.3012 37.9528 67.1571 39.0545 62.1166C39.1091 61.8945 39.0742 61.8971 43.5302 60.9911C43.8521 60.9255 43.8487 60.9331 43.2855 61.7125ZM36.0062 74.0562C35.5333 74.6844 35.1174 75.2103 35.0885 75.2247C35.0536 75.2273 35.2846 74.7373 35.5923 74.1263C36.1191 73.1022 36.1855 73.0042 36.5262 72.8465C36.7196 72.7414 36.8993 72.6667 36.9181 72.6751C36.993 72.7087 36.8439 72.9158 36.0062 74.0562ZM35.5438 63.072C35.0248 63.7526 34.4044 64.8351 33.1727 67.2053C31.924 69.6135 31.07 71.1667 30.6481 71.7813C30.4717 72.0492 30.5033 71.8533 30.8369 70.633C31.0527 69.8256 31.4827 68.064 31.7729 66.7146C32.0724 65.3694 32.3669 64.0858 32.4342 63.8603L32.5485 63.4549L34.1889 63.058C35.0917 62.851 35.819 62.684 35.8088 62.7068C35.802 62.722 35.6827 62.8877 35.5438 63.072ZM23.4595 61.3973C22.6095 59.7557 21.9212 58.4059 21.9306 58.4101C21.934 58.4025 22.8807 58.9001 24.0267 59.5054C25.1821 60.1148 26.7095 60.8729 27.4272 61.2039C28.5792 61.7205 28.8125 61.8525 29.3709 62.313L30.0128 62.8383L27.4993 63.6017L24.9953 64.3692L23.4595 61.3973ZM25.0865 58.6472C24.0828 57.9505 22.4456 56.9606 21.3712 56.3966L20.278 55.8241L19.5333 54.8509C19.1231 54.3107 18.4371 53.4825 17.9996 53.0032C17.5621 52.5239 17.2846 52.1894 17.3774 52.2584C17.4702 52.3274 17.8201 52.5756 18.1487 52.7961C19.2546 53.566 20.7997 54.7612 22.1813 55.9196C23.6523 57.1547 25.7029 58.9785 25.6424 58.9879C25.6169 58.9947 25.3717 58.8391 25.0865 58.6472ZM21.1745 67.2953C21.0255 67.3015 19.8336 68.4292 19.0871 69.2909C18.7685 69.6503 18.0621 70.5482 17.5099 71.2778C14.9731 74.6518 13.6695 76.2043 12.0584 77.765C11.1203 78.6778 9.23585 80.2712 8.16247 81.0593L7.42644 81.5968L8.21939 81.3588C11.8043 80.2631 14.7083 78.1771 16.9061 75.1077C17.8639 73.7746 18.475 72.6878 19.9471 69.7313C20.5898 68.4487 21.1532 67.3679 21.2111 67.3391C21.2562 67.3137 21.2443 67.2901 21.1745 67.2953Z" fill="#D1CCBD"/>
</svg>
